<svg width="20" height="21" viewBox="0 0 20 21" fill="none" xmlns="http://www.w3.org/2000/svg">
<g id="Google">
<path id="Intersect" d="M1.02388 14.9309L4.38721 12.359C4.1949 11.7749 4.09091 11.15 4.09091 10.5C4.09091 9.85001 4.1949 9.22513 4.38721 8.64102L1.02388 6.06906C0.367906 7.40272 0 8.90631 0 10.5C0 12.0937 0.367906 13.5973 1.02388 14.9309Z" fill="#FBBC05"/>
<path id="Intersect_2" d="M4.38725 8.64102C5.16325 6.28407 7.3773 4.59091 10 4.59091C11.4091 4.59091 12.6819 5.09091 13.6819 5.90909L16.591 3C14.8182 1.45455 12.5455 0.5 10 0.5C6.04828 0.5 2.6505 2.7621 1.02393 6.06906L4.38725 8.64102Z" fill="#EA4335"/>
<path id="Subtract" d="M10.0001 20.5C6.04719 20.5 2.64863 18.2366 1.02258 14.9282L4.38454 12.3507C5.15807 14.712 7.37423 16.4091 10.0001 16.4091C11.2849 16.4091 12.4234 16.1065 13.325 15.5375L16.518 18.0095C14.7701 19.6346 12.4392 20.5 10.0001 20.5Z" fill="#34A853"/>
<path id="Intersect_3" d="M10 8.68182H19.3182C19.4545 9.27273 19.5455 9.9091 19.5455 10.5C19.5455 13.7593 18.3531 16.3032 16.5179 18.0095L13.325 15.5375C14.369 14.8786 15.0953 13.8626 15.3636 12.5455H10V8.68182Z" fill="#4285F4"/>
</g>
</svg>
