<?xml version="1.0" encoding="UTF-8" standalone="no"?>
<svg
   version="1.1"
   id="Layer_1"
   x="0px"
   y="0px"
   width="230.96674"
   viewBox="0 0 230.96674 231.00668"
   enable-background="new 0 0 300 300"
   xml:space="preserve"
   height="231.00668"
   xmlns="http://www.w3.org/2000/svg"
   xmlns:svg="http://www.w3.org/2000/svg"><defs
   id="defs151" />&#10;&#10;<path
   fill="#000000"
   opacity="1"
   stroke="none"
   d="m 182.02724,223.9314 c -2.1483,0 -4.29659,0 -6.80605,0 0,-2.10718 0,-4.18663 0,-6.5982 -2.42616,0 -4.50195,0 -7.12149,0 0,4.25076 0,8.78424 0,13.48538 -2.60509,0 -4.67171,0 -7.10895,0 0,-2.25232 0,-4.32895 0,-6.81946 -2.30337,0 -4.24427,0 -6.60574,0.001 -0.42056,10e-4 -0.3504,0.0738 -0.38295,-0.38159 -0.0326,-2.39795 -0.0326,-4.34054 -0.0326,-6.64865 2.48772,0 4.5663,0 7.00603,0 0,-2.43971 0,-4.51355 0,-7.13004 4.89005,0 9.42011,0 13.82158,0 0,-2.50497 0,-4.45664 0,-6.51882 -7.03329,0 -13.8951,0 -21.10014,0 0,2.40821 0,4.4951 0,6.61299 -2.50026,0 -4.65137,0 -6.76625,0.0351 0.0362,0.035 0.10965,0.10415 0.10965,0.10415 0,-2.13678 0,-4.27357 0,-6.86574 -2.31385,-0.12115 -4.51386,-0.23634 -7.07047,-0.37022 0,-2.13292 0,-4.06267 -0.002,-6.4129 -0.002,-0.42049 -0.074,-0.35031 0.3801,-0.38283 2.47442,-0.0325 4.49479,-0.0325 6.74644,-0.0325 0,-2.71542 0,-4.79869 0.45728,-6.93914 7.00377,-0.0572 13.55027,-0.0572 20.22435,-0.0572 0,-2.50307 0,-4.55993 0,-6.84613 -2.36754,-0.12804 -4.56699,-0.247 -6.88529,-0.37236 0,-2.5766 0,-4.7147 0.45571,-6.82372 2.39099,0.0291 4.32624,0.0291 6.26336,0.0291 0,-2.5883 0,-4.76793 0,-6.67134 -2.43138,0 -4.50317,0 -6.57702,0 0,2.46786 0,4.61169 -0.45498,6.7185 -2.4009,-0.037 -4.34683,-0.037 -6.66334,-0.037 0,2.50204 0,4.58425 0,7.03527 -2.45223,0 -4.53183,0 -7.01527,0 0.12773,2.65744 0.23733,4.93737 -0.12265,7.09809 -2.60726,-0.14916 -4.74494,-0.17911 -6.84639,-0.17401 0.0362,0.0351 0.10963,0.10417 0.10963,0.10417 0,-4.58103 0,-9.16205 0,-14.08817 2.41022,0 4.47289,0 6.92953,0 0,-4.59981 0,-8.85579 -0.002,-13.54674 -0.002,-0.43496 -0.0735,-0.36439 0.39624,-0.39682 4.72576,-0.0324 8.98178,-0.0324 13.41315,-0.0324 0,-2.45932 0,-4.5168 0,-7.07487 -4.72157,0 -9.30222,0 -13.8478,0.0349 0.0351,0.0349 0.10505,0.10503 0.0725,-0.35274 -0.0325,-2.38821 -0.0325,-4.31863 -0.0325,-6.68817 7.26888,0 14.16652,0 21.03206,0.45816 -0.0321,2.38546 -0.0321,4.31273 -0.0321,6.68763 4.92424,0 9.49466,0 14.03009,-0.035 -0.035,-0.035 -0.10511,-0.10485 -0.0726,0.34013 0.0587,2.52583 0.0847,4.60669 -0.34485,6.65848 -2.39099,-0.0291 -4.32624,-0.0291 -6.26336,-0.0291 0,2.5883 0,4.76793 0,6.67134 2.43138,0 4.50317,0 6.57702,0 0,-2.46786 0,-4.61169 0.46823,-6.71853 4.86905,0.0622 9.26987,0.0874 13.63562,0.0776 -0.0351,-0.035 -0.10505,-0.10503 -0.0725,0.35029 0.0325,2.3852 0.0325,4.31507 0.0325,6.28522 2.58083,0 4.76181,0 7.07495,0 0,-2.46645 0,-4.6035 -0.035,-6.70432 -0.035,0.0362 -0.10414,0.10965 -0.10414,0.10965 2.1341,0 4.26819,0 7.06378,0 0,4.3306 0,8.69266 0.002,13.48957 0.001,0.43483 0.0739,0.36465 -0.38371,0.3972 -2.39429,0.0326 -4.33092,0.0326 -6.41988,0.0326 0,4.81337 0,9.2149 0,13.98019 2.25101,0 4.31913,0 6.92682,0 0,4.87634 0,9.40129 0,14.09467 5.01421,0 9.48244,0 13.91443,-0.0351 -0.0362,-0.035 -0.10968,-0.10414 -0.10968,-0.10414 0,2.16058 0,4.32117 0,6.86247 -4.43464,0 -8.86185,0 -13.60589,0 0,2.44058 0,4.51212 0,6.98392 6.53151,0 13.28695,0 20.35961,0 0,2.43684 0,4.50162 0,7.02505 -1.86248,0.0978 -3.94842,0.2074 -6.40154,0.33628 0,2.05749 0,4.14132 0,6.54562 -7.10274,0 -13.85467,0 -21.07784,0 -0.0959,-1.87164 -0.20218,-3.94757 -0.328,-6.40426 -2.05115,0 -4.1295,0 -6.8907,0 0,-2.45521 0,-4.54418 0.34901,-6.96619 2.42703,-0.33304 4.50503,-0.33304 6.35762,-0.33304 0,-2.73012 0,-4.8071 0,-6.91234 -2.46384,0 -4.61455,0 -6.72861,-0.45497 0.0367,-2.38888 0.0367,-4.32281 0.0367,-6.26121 -2.58862,0 -4.76524,0 -6.67442,0 0,2.42837 0,4.49935 0,6.57414 2.46101,0 4.60226,0 6.71409,0.44183 -0.0742,2.4646 -0.11896,4.48737 -0.16372,6.51013 -4.51845,0 -9.0369,0 -13.87595,0 0,2.44826 0,4.36237 -3.5e-4,6.69919 -3.4e-4,0.42273 0.0687,0.34955 0.0687,0.34955 m -7.06276,-36.45732 c 0,2.77129 0,5.54257 0,8.25286 7.29411,0 14.03174,0 20.72082,0 0,-7.01873 0,-13.75649 0,-20.44165 -7.02006,0 -13.75796,0 -20.72082,0 0,3.91984 0,7.56146 0,12.18879 z"
   id="path2" />&#10;<path
   fill="#000000"
   opacity="1"
   stroke="none"
   d="m 21.040443,91.073385 c -0.02348,-2.08264 -0.04697,-4.16527 -0.07193,-6.65846 -0.0015,-0.41055 -0.07388,-0.34037 0.381478,-0.37292 2.393924,-0.0326 4.332504,-0.0326 6.629673,-0.0326 0,-2.47212 0,-4.55805 0,-6.8357 2.549038,-0.13645 4.750187,-0.25428 6.832027,-0.36571 0,-2.45696 0,-4.40525 0,-6.87351 -4.734123,0 -9.325615,0 -13.882103,0.035 0.035,0.035 0.10495,0.10505 0.07244,-0.35027 -0.03251,-2.3852 -0.03251,-4.31507 -0.03251,-6.285221 -2.58083,0 -4.761818,0 -7.074959,0 0,2.466441 0,4.603481 0.03498,6.704331 0.03498,-0.0362 0.103908,-0.1096 0.103908,-0.1096 -2.150726,0 -4.301456,0 -6.877712,0 -0.09927,-2.0974 -0.197956,-4.18251 -0.31456,-6.646138 -2.052673,0 -4.127178,0 -6.54126,0 0,-2.432563 0,-4.511215 0,-6.937149 11.234398,0 22.74461,0 34.629967,0 0,2.090561 0,4.165558 0,6.653801 2.304764,0 4.246292,0 6.61351,0.421647 0.425682,2.356899 0.425682,4.292169 0.425682,6.229409 2.588196,0 4.7678,0 6.671395,0 0,-2.43131 0,-4.50308 0,-6.577165 -2.467759,0 -4.611557,0 -6.755349,0 0,-2.149521 0,-4.299034 0,-7.063332 11.495865,0 22.850502,0 34.64239,-0.0015 0.43725,-0.0015 0.36701,-0.07391 0.39954,0.3815 0.0325,2.392029 0.0325,4.328644 0.0325,6.618241 -2.46097,0 -4.53132,0 -6.68165,0 0,4.888743 0,9.410383 0,13.927173 2.46306,0 4.61274,0 6.72721,0.45511 -0.0352,2.3926 -0.0352,4.33007 -0.0352,6.62439 -2.47592,0 -4.5493,0 -6.66084,0 0,2.56481 0,4.74398 0,7.27106 2.42415,0 4.49933,0 6.7247,0 0,2.5023 0,4.64832 -0.47021,6.75918 -4.93206,0.0568 -9.39391,0.14882 -13.737112,-0.23764 0.118645,-2.55577 0.118645,-4.63309 0.118645,-6.73421 -2.768387,0 -4.914177,0 -7.023072,-0.45502 0.0369,-2.3976 0.0369,-4.34018 0.0369,-6.64652 2.489952,0 4.576843,0 6.640022,0 0,-7.22529 0,-14.07132 0,-20.79296 -2.317764,0 -4.268325,0 -6.772636,0 0,4.6872 0,9.22181 0,14.10255 -4.973473,0 -9.387802,0 -13.540031,0 0,2.46388 0,4.54206 0,6.59411 2.410751,0.1198 4.49842,0.22354 6.751617,0.3355 0,2.55516 0,4.70583 -0.455719,6.82732 -2.390984,-0.0292 -4.326248,-0.0292 -6.263489,-0.0292 0,2.58819 0,4.7678 0,6.6714 2.431298,0 4.503075,0 6.577164,0 0,-2.46778 0,-4.61156 0.44458,-6.71848 2.525398,0.0143 4.606201,-0.008 6.657829,0.42362 -0.02918,2.47542 -0.02918,4.49643 -0.02918,6.74849 2.705414,0 4.789543,0 6.930237,0.45501 0.05658,4.763358 0.05658,9.071688 0.05658,13.484708 -2.833984,0 -4.950546,0 -7.031875,-0.45745 0.03522,-2.3946 0.03522,-4.33171 0.03522,-6.79377 -7.246513,0 -14.105171,0 -21.306915,0 0,-2.61308 0,-4.6875 0,-7.110928 -2.453316,0 -4.525803,0 -6.948403,0 0,-2.45758 0,-4.53341 0,-6.77719 -2.511116,0 -4.660198,0 -6.77309,0.035 0.03619,0.035 0.109619,0.10395 0.109619,0.10395 z"
   id="path3" />&#10;<path
   fill="#000000"
   opacity="1"
   stroke="none"
   d="m 105.02718,167.93123 c -2.13924,0 -4.27849,0 -6.771288,0 0,2.20952 0,4.27823 0,7.06784 -4.68931,0 -9.05543,0 -13.85647,0.002 -0.43493,0.002 -0.36478,0.0739 -0.3975,-0.37044 -0.0575,-2.52965 -0.0824,-4.61493 0.35021,-6.66557 2.38428,0.0346 4.31113,0.0346 6.54339,0.0346 0,-4.92765 0,-9.49906 0.47177,-14.0353 7.08443,0.0352 13.697098,0.0352 20.373168,0.0352 0,-2.53044 0,-4.60403 0,-7.05287 -2.29731,0 -4.37667,0 -6.56256,0 0,-2.45479 0,-4.52893 0,-6.97946 2.28617,0 4.36617,0 6.81407,0 0,-2.45116 0,-4.53126 0,-6.76434 2.45348,0 4.52753,0 6.97947,0 0,2.26924 0,4.34935 0,6.61096 2.45257,0 4.52659,0 7.15732,0 0,-2.36322 0,-4.57227 0,-7.13532 2.64088,0 4.71878,0 6.48687,0 0,-2.46655 0,-4.54452 0,-6.98364 -2.4297,0 -4.505,0 -6.49464,0 0,-2.3365 0,-4.29153 0,-6.79452 4.69205,0 9.24118,0 13.50551,0 0,-2.62766 0,-4.69808 0,-7.14524 -4.75367,0 -9.16941,0 -13.33329,0 0,-2.46617 0,-4.53639 0,-6.98132 4.74553,0 9.16324,0 13.9231,0 0,-2.48412 0,-4.57533 0,-6.844715 2.50961,0 4.66354,0 6.78529,0.45827 -0.0322,2.397295 -0.0322,4.336305 -0.0322,6.637265 7.13664,0 13.88046,0 20.80277,0 0,2.43297 0,4.4977 0,7.1202 -4.6776,0 -9.20673,0 -14.08103,0 0,4.97061 0,9.38351 0,14.13206 -2.45775,0 -4.54403,0 -6.65741,0 0,2.5011 0,4.65253 -0.45511,6.76868 -2.38948,-0.0353 -4.32383,-0.0353 -6.78541,-0.0353 0,2.57103 0,4.76001 0,7.28631 -2.6113,0 -4.68294,0 -6.89871,0 0,2.49382 0,4.63608 0.0351,6.74211 0.035,-0.0362 0.10415,-0.10965 0.10415,-0.10965 -4.46879,0 -8.93759,0 -13.73724,0 0,2.26226 0,4.32196 0,6.77292 1.82478,0 3.89596,0 6.32025,0 0,2.42691 0,4.49976 0,7.11617 -6.54017,0 -13.39897,0 -20.65779,0 0,2.46586 0,4.40341 -3.7e-4,6.76382 -3.6e-4,0.42288 0.0686,0.34967 0.0686,0.34967 z"
   id="path4" />&#10;<path
   fill="#010101"
   opacity="1"
   stroke="none"
   d="m 0.027492,1.2545543 c 1.09565,-0.73796501 2.163086,-1.21546601 3.232067,-1.21894901 14.990654,-0.04892 29.98151,-0.0332 45.339733,-0.0332 0,16.24002771 0,32.42353371 0,48.78808971 -16.09404,0 -32.155578,0 -48.599292,0 C 0,32.963255 0,17.349336 0.02749,1.2545533 M 7.005411,35.420751 c 0,2.103096 0,4.2062 0,6.316948 11.937881,0 23.336288,0 34.729324,0 0,-11.664703 0,-23.061321 0,-34.4599717 -11.660736,0 -23.056786,0 -34.729324,0 0,9.2328257 0,18.1957397 0,28.1430237 z"
   id="path5" />&#10;<path
   fill="#010101"
   opacity="1"
   stroke="none"
   d="m 35.9556,231.00669 c -12.132682,0 -23.766456,0 -35.679187,0 0,-16.31185 0,-32.37221 0,-48.71927 16.026195,0 32.085971,0 48.418857,0 0,16.02658 0,32.09065 0,48.71927 -4.037941,0 -8.139343,0 -12.73967,0 M 9.669262,224.00351 c 10.746318,0 21.492637,0 31.984611,0 0,-12.08554 0,-23.48613 0,-34.64369 -11.744095,0 -23.142597,0 -34.648323,0 0,10.67246 -0.05183,20.99109 0.07463,31.30753 0.01369,1.11665 1.059692,2.22065 2.589085,3.33616 z"
   id="path6" />&#10;<path
   fill="#010101"
   opacity="1"
   stroke="none"
   d="m 230.96674,14.010775 c 0,11.802678 0,23.106953 0,34.703076 -16.26496,0 -32.32573,0 -48.67969,0 0,-15.997002 0,-32.057633 0,-48.41571771 15.99397,0 32.05394,0 48.67969,0 0,4.34704201 0,8.78063901 0,13.71264171 m -41.96134,2.531407 c 0,8.422073 0,16.844147 0,25.159836 12.01241,0 23.4123,0 34.69248,0 0,-11.701409 0,-23.09879 0,-34.3881107 -11.69782,0 -23.09383,0 -34.69248,0 0,2.9498627 0,5.5950847 0,9.2282747 z"
   id="path7" />&#10;<path
   fill="#000000"
   opacity="1"
   stroke="none"
   d="m 154.03877,21.068152 c 0,-2.153103 0,-4.306205 0,-6.842315 2.11541,-0.119347 4.20572,-0.237278 6.6115,-0.373009 0,-2.053936 0,-4.1354097 0,-6.5353997 -4.18913,0 -8.60298,0 -13.49097,0 -0.0941,1.878532 -0.19793,3.9509647 -0.32089,6.4054477 -2.04623,0 -4.118,0 -6.58224,0 0,2.444165 0,4.521031 0,6.942109 -2.44094,0 -4.52266,0 -6.95124,0 0,-4.249936 0,-8.783905 0,-13.5231937 2.03713,0 3.99253,0 6.33606,0 0,-2.25502 0,-4.332359 0,-6.77663801 9.56569,0 18.75318,0 28.32161,0 0,2.09036301 0,4.18335701 0,6.61753501 2.44307,0 4.52001,0 6.79564,0 0,14.1153137 0,27.8560707 0,42.0164787 -2.06557,0 -4.00676,0 -6.37088,0.0015 -0.42291,0.0015 -0.35278,0.07388 -0.38531,-0.380356 -0.0325,-2.496056 -0.0325,-4.537865 -0.0325,-6.685814 -2.82774,0 -4.95137,0 -7.03878,0.03506 0.0362,0.03506 0.10965,0.104149 0.10965,0.104149 0,-4.587464 0,-9.174927 0,-13.937649 2.30679,0 4.25427,0 6.56411,0 0,-2.351597 0,-4.527298 0,-7.137142 -4.24542,0 -8.50724,0 -13.20398,1.83e-4 -0.43493,1.79e-4 -0.36174,0.0691 -0.36174,0.0691 z"
   id="path8" />&#10;<path
   fill="#000000"
   opacity="1"
   stroke="none"
   d="m 132.89566,49.080268 c 2.14884,0 4.29769,0 6.80725,0 0,-2.250694 0,-4.329369 0,-6.743706 2.41661,0 4.48987,0 6.94341,0 0,1.794243 0,3.8629 0,6.30777 2.54504,0 4.72673,0 7.29703,0 0,-2.082344 0,-4.15918 0,-6.634926 2.30311,0 4.24414,0 6.64109,0.03213 0.45594,0.03213 0.38251,-0.03696 0.37882,0.382271 -0.004,2.461037 -0.004,4.502838 -0.004,6.650704 2.82777,0 4.95138,0 7.07501,0 0,0 -0.0701,-0.07243 -0.10468,-0.109147 -0.0345,2.101235 -0.0345,4.239197 -0.0345,6.844346 -2.16635,0.112777 -4.3668,0.227333 -6.93622,0.361099 0,2.132286 0,4.062507 0.001,6.413238 0.001,0.42051 0.0738,0.350289 -0.37115,0.382843 -2.52588,0.05869 -4.6068,0.0848 -6.65857,-0.344795 0.0291,-2.390983 0.0291,-4.32624 0.0291,-6.263443 -2.58822,0 -4.76783,0 -6.67138,0 0,2.43132 0,4.503098 0,6.577118 2.4678,0 4.6116,0 6.71847,0.455017 -0.0369,2.388561 -0.0369,4.322091 -0.0369,6.602921 -2.45879,0 -4.52636,0 -6.9366,0 0,4.92505 0,9.50574 -0.46947,14.05131 -4.74521,-0.0351 -9.02095,-0.0351 -13.38886,-0.0351 0,-2.52069 0,-4.59051 0,-7.03188 2.27218,0 4.35926,0 6.59897,0 0,-2.44509 0,-4.51591 0,-7.13674 -2.3768,0 -4.57274,0 -6.46306,0 0,-2.6318 0,-4.70657 0,-7.136183 2.42505,0 4.49837,0 6.3273,0 0,-2.462372 0,-4.533203 0,-6.58152 -2.4142,-0.112755 -4.50085,-0.210212 -6.60391,-0.308433 0,-2.579026 0,-4.729851 -0.035,-6.844483 -0.035,0.03619 -0.10391,0.109612 -0.10391,0.109612 z"
   id="path9" />&#10;<path
   fill="#000000"
   opacity="1"
   stroke="none"
   d="m 83.683312,27.747985 c 0.16159,2.282318 0.32318,4.564644 0.51044,7.209625 2.19074,0 4.27266,0 6.72233,0 0,4.781273 0,9.209671 0,14.052193 2.3192,0 4.26091,0 6.62555,-0.0015 0.42292,-0.0015 0.35289,-0.07385 0.3854,0.381561 0.0325,2.388977 0.0325,4.322533 0.0325,6.603585 -2.44794,0 -4.51555,0 -6.926,0 0,4.925247 0,9.506084 -0.44508,14.051694 -2.52767,-0.0118 -4.61025,0.0117 -6.66086,-0.43509 0.032,-4.833844 0.032,-9.197453 0.032,-13.675587 -2.79544,0 -4.93026,0 -7.06509,0 0,0 0.0702,0.07245 0.10484,0.109169 0.01,-2.046189 -0.0152,-4.12909 0.3816,-6.627846 2.35694,-0.41584 4.29221,-0.41584 6.22945,-0.41584 0,-2.588196 0,-4.7678 0,-6.671395 -2.43131,0 -4.50308,0 -6.57716,0 0,2.467759 0,4.611557 0,6.755349 -2.14333,0 -4.28666,0 -6.74933,0 0,-4.651818 0,-9.15889 0,-14.031884 2.10163,0 4.16398,0 6.58163,0 0,-2.413368 0,-4.480545 0,-7.056102 2.26219,0 4.175,0 6.49394,-0.08722 0.40613,-0.08723 0.32383,-0.160721 0.32383,-0.160721 z"
   id="path10" />&#10;<path
   fill="#000000"
   opacity="1"
   stroke="none"
   d="m 90.901652,7.0778653 c 2.15174,0 4.30347,0 6.84322,0 0.12076,-2.256539 0.23247,-4.343937 0.36148,-6.75468501 2.042418,0 4.114808,0 6.581148,0 0,1.85829601 0,3.93356301 0,6.34712201 2.43401,0 4.51032,0 6.96939,0 0,-1.812835 0,-3.888092 0,-6.31729501 2.43189,0 4.504,0 6.95125,0 0,8.88422801 0,18.06180571 0,27.44734571 -6.75649,0 -13.48508,0 -20.599958,0 0,-4.555527 0,-8.973568 0,-13.801445 -2.31711,0 -4.25739,0 -6.62054,-2.9e-4 -0.42289,-2.9e-4 -0.34968,0.06853 -0.34968,0.06853 -0.0226,-2.080727 -0.0451,-4.1614567 -0.0675,-6.6523357 1.9e-4,-0.410153 -0.0688,-0.336948 -0.0688,-0.336948 M 104.96853,19.36173 c 2.21413,0.695553 4.42827,1.391106 6.67931,2.098256 0,-3.22511 0,-5.278733 0,-7.177788 -2.3748,0 -4.42803,0 -6.68302,0 0,1.56723 0,2.858108 0.004,5.079532 z"
   id="path11" />&#10;<path
   fill="#000000"
   opacity="1"
   stroke="none"
   d="m 216.89516,70.080385 c 2.14941,0 4.29884,0 6.81163,0 0,2.09608 0,4.17793 0,6.63687 2.41641,0 4.4909,0 6.91607,0 0,2.42625 0,4.50004 0,7.10195 -1.88839,0.10062 -4.09411,0.21816 -6.65264,0.35449 0,2.28726 0,4.36298 0,6.80202 -2.43961,0 -4.5174,0 -7.01105,0 0,2.30472 0,4.24624 0.001,6.60833 0.002,0.42056 0.0739,0.35042 -0.38032,0.38293 -2.49605,0.0325 -4.53787,0.0325 -6.68584,0.0325 0,2.827745 0,4.951375 0.035,7.039995 0.035,-0.035 0.10516,-0.10489 -0.36461,-0.0725 -4.7279,0.0324 -8.98602,0.0324 -13.25159,0.0324 0,-2.59137 0,-4.76579 0,-7.283095 2.42679,0 4.50002,0 6.73072,0 0,-2.49466 0,-4.63764 -0.0367,-6.7462 -0.0367,0.0344 -0.10564,0.10763 0.35139,0.0735 2.38249,-0.0341 4.30794,-0.0341 6.67575,-0.0341 0,-4.93771 0,-9.50639 -0.035,-14.04009 -0.035,0.035 -0.10501,0.10496 0.34923,0.0724 2.49606,-0.0325 4.53787,-0.0325 6.68584,-0.0325 0,-2.82773 0,-4.95137 -0.0351,-7.03875 -0.0351,0.0362 -0.10432,0.10968 -0.10432,0.10968 z"
   id="path12" />&#10;<path
   fill="#000000"
   opacity="1"
   stroke="none"
   d="m 28.040348,133.07369 c 0,-4.47501 0,-8.95001 0,-13.74645 -2.292374,0 -4.35598,0 -6.803276,0 0,1.86216 0,3.93619 0,6.34571 -2.432743,0 -4.504364,0 -6.970078,0 0,-1.81258 0,-3.88678 0,-6.32138 -2.433395,0 -4.509712,0 -7.116657,0 -0.10083,1.88237 -0.219124,4.09069 -0.346359,6.46597 -2.30465,0 -4.374081,0 -6.64148,0 0,-4.58902 0,-8.99243 0,-13.77637 6.90609,0 13.650799,0 20.807366,0 0,-2.31119 0,-4.25099 -0.0014,-6.61374 -0.0014,-0.42296 -0.07379,-0.35287 0.38161,-0.38542 2.395325,-0.0326 4.335247,-0.0326 6.636433,-0.0326 0,2.47603 0,4.55175 0,6.98374 2.431698,0 4.503033,0 6.674252,0 0,7.2277 0,14.08545 0,20.94131 -2.45797,0 -4.612122,0 -6.730034,0.035 0.03624,0.035 0.109665,0.10414 0.109665,0.10414 z"
   id="path13" />&#10;<path
   fill="#000000"
   opacity="1"
   stroke="none"
   d="m 56.033367,174.92879 c -13.89563,0 -27.791252,0 -41.876435,0 0,-7.05931 0,-13.78628 0,-20.91908 2.087059,0 4.024708,0 6.385304,-0.002 0.422947,-0.002 0.352306,-0.0735 0.384823,0.38078 0.03252,2.49622 0.03252,4.53818 0.03252,6.54672 2.831585,0 4.956139,0 7.045517,0.45506 -0.03518,2.3848 -0.03518,4.31455 -0.03518,6.28448 2.570599,0 4.751477,0 6.920117,0 0,-2.46638 0,-4.6032 0.445625,-6.70757 2.531563,0.0107 4.617493,-0.011 6.66877,0.42471 -0.03465,2.38394 -0.03465,4.31044 -0.03465,6.53775 4.924866,0 9.494705,0 14.032044,0.44623 -0.05745,2.53032 -0.08241,4.61444 -0.07237,6.66237 0.035,-0.0362 0.10392,-0.10959 0.10392,-0.10959 z"
   id="path14" />&#10;<path
   fill="#000000"
   opacity="1"
   stroke="none"
   d="m 97.999022,49.043532 c 0.0345,-4.435684 0.0345,-8.908081 0.0345,-13.913231 9.217088,0 18.401578,0 27.940248,0 0,-2.597351 0,-4.669632 0,-6.929222 2.43365,0 4.5008,0 6.98593,0 0,6.737541 0,13.335778 -0.032,20.406601 -0.032,0.472588 0.0369,0.39917 -0.3835,0.395508 -2.35695,-0.0037 -4.29346,-0.0037 -6.58572,-0.0037 0,-2.460983 0,-4.533043 0,-6.795692 -2.42289,0 -4.48708,0 -6.91953,0 0,4.697128 0,9.283729 -0.44592,13.837784 -2.53157,-0.0108 -4.61719,0.01093 -6.66829,-0.43689 0.0345,-4.727768 0.0345,-8.985992 0.0345,-13.251343 -2.58785,0 -4.76422,0 -7.28311,0 0,2.433281 0,4.506943 0,6.581085 -2.49509,0 -4.63834,0 -6.781598,0 0,0 0.07,0.07236 0.1045,0.10907 z"
   id="path15" />&#10;<path
   fill="#000000"
   opacity="1"
   stroke="none"
   d="m 160.92532,63.039107 c 2.11264,0.03455 4.262,0.03455 6.77253,0.03455 0,2.095242 0,4.175882 0,6.597172 2.41935,0 4.49582,0 7.11941,0 0,-4.23964 0,-8.769016 0,-13.476635 2.60335,0 4.66638,0 7.142,0 0,6.748062 0,13.342235 0.002,20.373675 0.002,0.43728 0.0734,0.3666 -0.38197,0.39913 -2.39145,0.0325 -4.32749,0.0325 -6.61489,0.0325 0,2.468 0,4.53753 0,7.08077 -7.25819,0 -14.16358,0 -21.03683,-0.45598 0.0322,-2.38997 0.0322,-4.32396 0.0322,-6.60516 2.44373,0 4.51779,0 7.0748,0 0,-4.92581 0,-9.50531 0,-14.084812 0,0 -0.0724,0.07022 -0.10909,0.104774 z"
   id="path16" />&#10;<path
   fill="#000000"
   opacity="1"
   stroke="none"
   d="m 195.88872,132.9355 c 0.0235,6.73162 0.047,13.46322 0.072,20.63201 0.002,0.43719 0.074,0.36709 -0.39463,0.39953 -4.86965,0.0108 -9.27065,-0.0108 -13.67167,-0.0324 0,0 0.0701,0.0699 0.0726,-0.36486 0.003,-4.79674 0.003,-9.15876 0.003,-13.48957 -2.80581,0 -4.93986,0 -7.04193,-0.47021 0.032,-4.83373 0.032,-9.19722 0.032,-13.68131 2.80487,0 4.93948,0 7.04196,0.45816 -0.0322,2.38546 -0.0322,4.31275 -0.0322,6.6876 4.92233,0 9.49376,0 14.02896,-0.035 -0.0362,-0.035 -0.10965,-0.10393 -0.10965,-0.10393 z"
   id="path17" />&#10;<path
   fill="#000000"
   opacity="1"
   stroke="none"
   d="m 69.892672,195.94316 c 0,2.14374 0,4.2875 0,6.7791 -2.0868,0 -4.15993,0 -6.588897,0 0,4.85045 0,9.36547 0,14.28781 1.948597,0 3.881797,0 6.237827,2.8e-4 0.42282,2.9e-4 0.34961,-0.0687 0.34961,-0.0687 0,4.4691 0,8.93819 0,13.73488 -4.44023,0 -8.835438,0 -13.580936,0 0,-11.24977 0,-22.73865 0,-34.66629 4.255844,0 8.520752,0 13.220646,9.1e-4 0.43499,9.2e-4 0.36175,-0.068 0.36175,-0.068 z"
   id="path18" />&#10;<path
   fill="#000000"
   opacity="1"
   stroke="none"
   d="m 21.034179,146.92998 c -4.477825,0 -8.955654,0 -13.981228,0 0,9.39629 0,18.59409 0,27.9245 -2.505138,0 -4.46397,0 -6.756172,0 0,-11.43442 0,-22.95802 0,-34.85777 2.141995,0 4.224266,0 6.655972,0 0,-2.44171 0,-4.51978 0,-6.7908 2.448166,0 4.520893,0 6.971035,0 0,2.21836 0,4.29888 0,6.80395 2.311447,0 4.255565,0 6.620247,-0.002 0.420562,-0.002 0.350422,-0.0739 0.383094,0.37104 0.01089,2.52838 -0.0109,4.61178 0.0026,6.65941 0.03531,-0.0358 0.104419,-0.1088 0.104419,-0.1088 z"
   id="path19" />&#10;<path
   fill="#000000"
   opacity="1"
   stroke="none"
   d="m 72.837712,0.00449329 c 1.59171,3e-6 2.70642,3e-6 3.97204,3e-6 0,2.39306301 0,4.34555901 0,6.68214101 -1.97044,0 -4.04362,0 -6.66535,0 0,7.1995657 0,14.0529737 0,21.1031837 -4.93619,0 -9.332707,0 -13.955617,0 0,-2.176438 0,-4.242135 0,-6.685029 2.136177,0 4.210304,0 6.528198,0 0,-2.437763 0,-4.508037 0,-6.927967 -2.059333,-0.09526 -4.13961,-0.191497 -6.48204,-0.299858 0,-2.162704 0,-4.2332757 0,-6.6543767 1.986816,-0.11692 4.065964,-0.23928 6.513489,-0.383316 0.116043,-2.070755 0.232742,-4.153263 0.383011,-6.83478901 3.043179,0 6.136219,0 9.706269,8e-6 z"
   id="path20" />&#10;<path
   fill="#000000"
   opacity="1"
   stroke="none"
   d="m 104.9019,189.07775 c 2.15036,0 4.30072,0 6.859,0 0.11016,-2.25209 0.21228,-4.33947 0.33024,-6.75073 2.06009,0 4.14021,0 6.54958,0 0,6.47228 0,13.2152 0,20.31883 -6.58997,0 -13.43837,0 -20.484128,0 0,-2.09511 0,-4.16289 0,-6.60628 2.235698,0 4.314388,0 6.813598,0 0,-2.30835 0,-4.25114 3.3e-4,-6.61449 3.5e-4,-0.42054 -0.0686,-0.34733 -0.0686,-0.34733 z"
   id="path21" />&#10;<path
   fill="#000000"
   opacity="1"
   stroke="none"
   d="m 216.89133,62.941672 c 0.0227,2.082563 0.0455,4.165103 0.036,6.693183 -0.0322,0.44553 0.0371,0.37209 -0.38216,0.36838 -2.461,-0.004 -4.50279,-0.004 -6.65068,-0.004 0,2.82775 0,4.95137 0,7.07499 0,0 0.07,-0.07 -0.367,-0.0725 -7.16902,-0.0241 -13.90103,-0.0458 -20.5972,-0.0322 0.0358,0.0353 0.10884,0.10441 0.10884,0.10441 0,-2.15492 0,-4.30983 0,-6.81555 4.4014,0 8.81636,0 13.78163,0 0,-4.85421 0,-9.379202 0,-14.067388 2.61635,0 4.68274,0 7.11893,0 0,2.253036 0,4.329338 0,6.818778 2.30258,0 4.24316,0 6.60428,2.6e-4 0.42054,2.67e-4 0.34735,-0.0687 0.34735,-0.0687 z"
   id="path22" />&#10;<path
   fill="#000000"
   opacity="1"
   stroke="none"
   d="m 70.000342,196.04874 c 0.0128,-2.04967 -0.009,-4.13597 -0.0319,-6.63327 -0.002,-0.41098 -0.0739,-0.34097 0.38368,-0.37352 2.38447,-0.0326 4.31134,-0.0326 6.5435,-0.0326 0,-4.93811 0,-9.50944 0.44413,-14.04535 2.52772,0.0605 4.61131,0.0855 6.6949,0.11052 0,0 -0.0701,-0.0724 -0.10468,-0.1091 -0.0345,2.10932 -0.0345,4.25534 -0.0345,6.75763 2.22523,0 4.30041,0 6.72457,0 0,2.52832 0,4.70911 0,7.27104 -2.10839,0 -4.19305,0 -6.66109,0 0,2.2943 0,4.23177 -2.6e-4,6.58979 -2.7e-4,0.42054 0.0687,0.34735 0.0687,0.34735 -4.39909,0.0229 -8.79818,0.0458 -13.66598,0.0403 -0.4687,-0.0284 -0.39546,0.0405 -0.36103,0.0772 z"
   id="path23" />&#10;<path
   fill="#000000"
   opacity="1"
   stroke="none"
   d="m 98.037052,224.06629 c 0,-4.58649 0,-9.17298 0,-13.90491 2.317028,0 4.263668,0 6.748688,0 0,2.06834 0,4.25658 0,6.8488 4.78627,0 9.0476,0 13.74385,3.2e-4 0.4349,3.2e-4 0.36169,-0.0686 0.36169,-0.0686 0,2.14621 0,4.29244 0,6.79726 -2.09131,0 -4.1701,0 -6.62303,0 0,2.40854 0,4.47903 0,6.9133 -2.53935,0 -4.72096,0 -7.2872,0 0,-2.09653 0,-4.17145 0,-6.6536 -2.29808,0 -4.23706,0 -6.596618,-7e-4 -0.42061,-7e-4 -0.34738,0.0682 -0.34738,0.0682 z"
   id="path24" />&#10;<path
   fill="#000000"
   opacity="1"
   stroke="none"
   d="m 216.92546,98.039155 c 2.11266,0.0346 4.26201,0.0346 6.77303,0.0346 0,2.094885 0,4.175345 0,6.632605 2.42154,0 4.49337,0 6.91821,0 0,2.54335 0,4.72532 0,7.29912 -2.11612,0 -4.19089,0 -6.62723,0 0,2.43762 0,4.51448 0,6.99368 -2.30264,0 -4.24328,0 -6.60447,0.002 -0.42057,0.002 -0.35045,0.0739 -0.38297,-0.38029 -0.0325,-2.49622 -0.0325,-4.53819 -0.0325,-6.54649 -2.83162,0 -4.95617,0 -7.04559,-0.44513 0.0604,-2.52813 0.0856,-4.61112 0.11075,-6.69411 10e-6,0 -0.0701,0.0699 0.34915,0.0724 2.46108,0.002 4.50288,0.002 6.65076,0.002 0,-2.82775 0,-4.95137 0,-7.074995 0,0 -0.0724,0.0701 -0.10912,0.10469 z"
   id="path25" />&#10;<path
   fill="#000000"
   opacity="1"
   stroke="none"
   d="m 21.003688,104.97 c -4.423828,-0.0345 -8.884365,-0.0345 -13.691978,-0.0345 0,-4.51377 0,-9.012615 0,-13.926115 4.27644,0 8.532249,0 13.258392,0.032 0.470341,0.032 0.396912,-0.0369 0.393174,0.3967 -0.02538,4.83458 -0.04701,9.235515 -0.06864,13.636455 0,0 0.07235,-0.0701 0.109054,-0.10456 z"
   id="path26" />&#10;<path
   fill="#000000"
   opacity="1"
   stroke="none"
   d="m 90.930412,13.961657 c -0.0343,4.564335 -0.0343,9.165345 -0.0343,14.023598 -2.33705,0 -4.2931,0 -6.73095,-0.118633 -0.48181,-0.118637 -0.39951,-0.04514 -0.36473,-0.01446 0.0348,-2.083279 0.0348,-4.197239 0.0348,-6.636238 -2.11015,-0.116032 -4.18057,-0.229877 -6.56083,-0.36076 0,-2.037136 0,-4.096656 0,-6.846138 4.09382,0 8.45864,0 13.29355,0.02906 0.47007,0.02906 0.39686,-0.03976 0.36252,-0.07643 z"
   id="path27" />&#10;<path
   fill="#000000"
   opacity="1"
   stroke="none"
   d="m 70.003602,188.97004 c -4.41253,-0.0345 -8.861761,-0.0345 -14.034124,-0.0345 0,-4.3304 0,-8.69828 0.03194,-13.53646 0.03195,-0.47032 -0.03698,-0.39691 0.373536,-0.39338 2.493255,-0.0234 4.576004,-0.0503 6.626632,0.37867 -0.03213,2.38649 -0.03213,4.3171 -0.03213,6.45252 2.555019,0.13437 4.755559,0.2501 6.925049,0.36419 0,2.5987 0,4.73604 0,6.87339 0,0 0.0724,-0.07 0.10909,-0.10446 z"
   id="path28" />&#10;<path
   fill="#000000"
   opacity="1"
   stroke="none"
   d="m 153.93121,20.962558 c -0.0344,4.434005 -0.0344,8.904689 -0.0344,13.708522 -4.56114,0 -9.0767,0 -13.76575,0 0,-2.041587 0,-3.991119 0,-6.491096 2.06266,0 4.25734,0 6.81052,0 0,-2.616085 0,-4.693069 0,-7.170929 2.30332,0 4.24437,0 6.64128,0.02955 0.45587,0.02955 0.38268,-0.03937 0.34831,-0.07605 z"
   id="path29" />&#10;<path
   fill="#000000"
   opacity="1"
   stroke="none"
   d="m 209.88878,125.93518 c 0,2.13463 0,4.26925 0,7.06437 -4.3325,0 -8.69605,0 -13.52983,-0.032 -0.47023,-0.032 -0.39681,0.0369 -0.39316,-0.38575 0.004,-2.34911 0.004,-4.27555 0.004,-6.50742 4.92539,0 9.4953,0 14.02899,-0.035 -0.0362,-0.035 -0.10966,-0.10415 -0.10966,-0.10415 z"
   id="path30" />&#10;<path
   fill="#000000"
   opacity="1"
   stroke="none"
   d="m 224.03742,140.06697 c 0,-4.5886 0,-9.17721 0,-13.90812 2.32479,0 4.27346,0 6.57663,0 0,4.40902 0,8.92383 0,13.84004 -1.93512,0 -3.86966,0 -6.22703,-4.7e-4 -0.42282,-4.6e-4 -0.3496,0.0685 -0.3496,0.0685 z"
   id="path31" />&#10;<path
   fill="#000000"
   opacity="1"
   stroke="none"
   d="m 97.929442,223.96073 c -0.0344,2.1138 -0.0344,4.26425 -0.0344,6.72925 -4.51619,0 -9.03769,0 -13.74794,0 0,-2.15122 0,-4.21146 0,-6.681 4.42391,0 8.68699,0 13.42,0.0287 0.46994,0.0287 0.39671,-0.0402 0.36233,-0.0769 z"
   id="path32" />&#10;<path
   fill="#000000"
   opacity="1"
   stroke="none"
   d="m 223.70697,147.28598 c 2.26456,-0.11238 4.52911,-0.22476 7.0315,-0.34895 0,4.77185 0,9.16536 0,13.81477 -2.10984,0 -4.17316,0 -6.78263,0 0,-4.20178 0,-8.4546 -0.0875,-13.12768 -0.0875,-0.42026 -0.16135,-0.33814 -0.16135,-0.33814 z"
   id="path33" />&#10;<path
   fill="#000000"
   opacity="1"
   stroke="none"
   d="m 153.9299,223.96531 c -0.0345,2.10852 -0.0345,4.25378 -0.0345,6.71911 -4.50911,0 -9.02248,0 -13.92551,0 0,-1.97192 0,-3.90326 -0.002,-6.25741 -0.001,-0.42283 -0.074,-0.35264 0.39467,-0.38508 4.86962,-0.0108 9.2706,0.0108 13.67159,0.0325 0,0 -0.0702,-0.0724 -0.10471,-0.1091 z"
   id="path34" />&#10;<path
   fill="#000000"
   opacity="1"
   stroke="none"
   d="m 62.611942,35.433577 c 0.304047,4.617745 0.304047,8.869622 0.304047,13.342606 -2.324601,0 -4.380173,0 -6.695908,0 0,-4.381653 0,-8.760117 0,-13.708473 1.969391,0 4.02861,0 6.391861,0.365867 z"
   id="path35" />&#10;<path
   fill="#000000"
   opacity="1"
   stroke="none"
   d="m 21.003742,83.969835 c -2.098717,-0.0345 -4.23415,-0.0345 -7.03426,-0.0345 0,-4.33838 0,-8.70224 0.03198,-13.53631 0.03198,-0.47021 -0.03695,-0.39681 0.373459,-0.39314 2.493473,0.0254 4.576545,0.047 6.659614,0.0687 0,0 -0.06995,-0.07 -0.07247,0.3636 -0.02416,4.83457 -0.04579,9.23547 -0.06743,13.63637 0,0 0.07239,-0.0702 0.109107,-0.10472 z"
   id="path36" />&#10;<path
   fill="#000000"
   opacity="1"
   stroke="none"
   d="m 223.89524,189.08028 c 2.14498,0 4.29,0 6.75216,0 0,4.50368 0,9.01852 0,13.91933 -1.9787,0 -3.91052,0 -6.30054,-0.0322 -0.45825,-0.0322 -0.38482,0.0369 -0.38107,-0.3967 0.0254,-4.83449 0.047,-9.23539 0.0336,-13.60006 -0.0351,0.0362 -0.10415,0.10963 -0.10415,0.10963 z"
   id="path37" />&#10;<path
   fill="#000000"
   opacity="1"
   stroke="none"
   d="m 126.02718,174.93123 c -2.14115,0 -4.28228,0 -6.74297,0 0,-2.07576 0,-4.14676 0,-6.5749 1.91145,0 4.09001,0 6.67468,0 0,1.93907 0,3.87304 -3.3e-4,6.22757 -3.5e-4,0.42054 0.0686,0.34733 0.0686,0.34733 z"
   id="path38" />&#10;<path
   fill="#000000"
   opacity="1"
   stroke="none"
   d="m 181.9216,224.039 c 2.10713,0.0344 4.25095,0.0344 6.7188,0.0344 0,2.06766 0,4.13714 0,6.57687 -1.9034,0 -4.08301,0 -6.67134,0 0,-1.93707 0,-3.87231 0.0291,-6.26324 0.0291,-0.45566 -0.0399,-0.38248 -0.0765,-0.34806 z"
   id="path39" />&#10;<path
   fill="#000000"
   opacity="1"
   stroke="none"
   d="m 217.24664,175.26273 c -0.11268,-2.265 -0.22535,-4.53 -0.34985,-7.03244 2.44881,0 4.51306,0 6.82404,0 0,2.11734 0,4.18465 0,6.78285 -1.91101,0 -3.82763,0 -6.15026,0.0879 -0.40603,0.0879 -0.32393,0.1617 -0.32393,0.1617 z"
   id="path40" />&#10;<path
   fill="#000000"
   opacity="1"
   stroke="none"
   d="m 104.92154,168.03885 c 2.10715,0.0344 4.25098,0.0344 6.71884,0.0344 0,2.07385 0,4.14564 0,6.57702 -1.90341,0 -4.08304,0 -6.67134,0 0,-1.93712 0,-3.87237 0.0291,-6.26336 0.0291,-0.45571 -0.0399,-0.3825 -0.0766,-0.34809 z"
   id="path41" />&#10;<path
   fill="#000000"
   opacity="1"
   stroke="none"
   d="m 132.68244,195.74628 c 0.11268,2.265 0.22535,4.53 0.34983,7.03241 -2.44737,0 -4.5094,0 -6.82405,0 0,-2.11539 0,-4.17966 0,-6.78285 1.91115,0 3.82778,0 6.15038,-0.0879 0.40597,-0.0879 0.32384,-0.16171 0.32384,-0.16171 z"
   id="path42" />&#10;<path
   fill="#000000"
   opacity="1"
   stroke="none"
   d="m 83.921722,196.0389 c 2.10713,0.0344 4.25092,0.0344 6.71871,0.0344 0,2.07388 0,4.14566 0,6.577 -1.9035,0 -4.08311,0 -6.67137,0 0,-1.93714 0,-3.87238 0.0291,-6.26332 0.0292,-0.45572 -0.0398,-0.38253 -0.0765,-0.3481 z"
   id="path43" />&#10;<path
   fill="#000000"
   opacity="1"
   stroke="none"
   d="m 91.007282,6.9702403 c -2.10712,-0.03442 -4.25092,-0.03442 -6.71867,-0.03442 0,-2.074131 0,-4.145904 0,-6.57719401 1.90362,0 4.08323,0 6.67141,0 0,1.93725601 0,3.87252101 -0.0292,6.26351201 -0.0292,0.455727 0.0398,0.382522 0.0764,0.348102 z"
   id="path44" />&#10;<path
   fill="#000000"
   opacity="1"
   stroke="none"
   d="m 69.998842,217.04731 c 0.0344,-2.10712 0.0344,-4.25092 0.0344,-6.71872 2.07402,0 4.1458,0 6.57712,0 0,1.90355 0,4.08316 0,6.67138 -1.93721,0 -3.87246,0 -6.26345,-0.0291 -0.45572,-0.0292 -0.38251,0.0398 -0.34809,0.0765 z"
   id="path45" />&#10;<path
   fill="#000000"
   opacity="1"
   stroke="none"
   d="m 118.9989,217.04749 c 0.0344,-2.10715 0.0344,-4.25098 0.0344,-6.71884 2.07385,0 4.14564,0 6.57702,0 0,1.90341 0,4.08304 0,6.67134 -1.93712,0 -3.87237,0 -6.26336,-0.0291 -0.45571,-0.0291 -0.3825,0.0399 -0.34809,0.0766 z"
   id="path46" />&#10;<path
   fill="#000000"
   opacity="1"
   stroke="none"
   d="m 140.00359,195.96973 c -2.10271,-0.0181 -4.2421,-0.002 -6.85134,-0.10425 -0.46981,-0.1192 -0.38768,-0.0453 -0.3529,-0.0147 0.0348,-2.05313 0.0348,-4.13691 0.0348,-6.84138 2.25436,0 4.27566,0 6.75157,0.0321 0.45462,0.0321 0.38121,-0.037 0.3775,0.37335 -0.0254,2.49344 -0.0471,4.57652 -0.0688,6.65961 0,0 0.0725,-0.0702 0.10915,-0.10477 z"
   id="path47" />&#10;<path
   fill="#000000"
   opacity="1"
   stroke="none"
   d="m 140.04031,217.0737 c 0,-2.12414 0,-4.2483 0,-7.06428 2.00406,0 4.04722,0 6.54522,0.0321 0.45485,0.0321 0.38142,-0.037 0.37773,0.38226 -0.004,2.46098 -0.004,4.50272 -0.004,6.51068 -2.81789,0 -4.94152,0 -7.02891,0.0351 0.0362,0.0351 0.10965,0.10415 0.10965,0.10415 z"
   id="path48" />&#10;<path
   fill="#000000"
   opacity="1"
   stroke="none"
   d="m 125.92154,175.03885 c 2.10715,0.0344 4.25098,0.0344 6.71884,0.0344 0,2.07385 0,4.14564 0,6.57702 -1.90341,0 -4.08304,0 -6.67134,0 0,-1.93712 0,-3.87237 0.0291,-6.26336 0.0291,-0.45571 -0.0399,-0.3825 -0.0766,-0.34809 z"
   id="path49" />&#10;<path
   fill="#000000"
   opacity="1"
   stroke="none"
   d="m 216.89511,182.08037 c 2.12418,0 4.24835,0 7.06449,0 0,2.00394 0,4.04709 -0.0322,6.54506 -0.0322,0.45485 0.0369,0.38144 -0.38232,0.37776 -2.46094,-0.004 -4.50264,-0.004 -6.51053,-0.004 0,-2.81788 0,-4.94146 -0.0351,-7.02881 -0.0351,0.0362 -0.10436,0.10966 -0.10436,0.10966 z"
   id="path50" />&#10;<path
   fill="#000000"
   opacity="1"
   stroke="none"
   d="m 133.03772,224.06717 c 0,-2.12314 0,-4.24626 0,-7.05775 2.00702,0 4.05002,0 6.54779,0.0322 0.4548,0.0321 0.38139,-0.037 0.3777,0.37337 -0.0254,2.49337 -0.0471,4.5764 -0.0688,6.65943 0,0 0.0725,-0.0702 0.10918,-0.10479 -2.04802,-0.0133 -4.13275,0.008 -6.62826,0.0289 -0.4108,-3.1e-4 -0.33759,0.0687 -0.33759,0.0687 z"
   id="path51" />&#10;<path
   fill="#000000"
   opacity="1"
   stroke="none"
   d="m 105.00754,188.97013 c -2.10715,-0.0344 -4.25098,-0.0344 -6.718838,-0.0344 0,-2.07385 0,-4.14564 0,-6.57702 1.903408,0 4.083038,0 6.671338,0 0,1.93712 0,3.87237 -0.0291,6.26336 -0.0291,0.45571 0.0399,0.3825 0.0766,0.34809 z"
   id="path52" />&#10;<path
   fill="#000000"
   opacity="1"
   stroke="none"
   d="m 209.92542,175.03925 c 2.1027,0.0181 4.24212,0.002 6.85138,0.10428 0.46984,0.1192 0.38774,0.0454 0.35302,0.0147 -0.0799,1.99229 -0.12513,4.01524 -0.20251,6.48016 -0.0322,0.44194 0.037,0.36853 -0.38214,0.36481 -2.46093,-0.004 -4.50266,-0.004 -6.51059,-0.004 0,-2.81783 0,-4.94144 0,-7.06504 0,0 -0.0725,0.0702 -0.10916,0.10477 z"
   id="path53" />&#10;<path
   fill="#000000"
   opacity="1"
   stroke="none"
   d="m 132.93009,223.96152 c -0.0344,2.10718 -0.0344,4.25101 -0.0344,6.71881 -2.07379,0 -4.14557,0 -6.57694,0 0,-1.90341 0,-4.08301 0,-6.67135 1.93706,0 3.8723,0 6.26326,0.0291 0.45572,0.0291 0.38251,-0.0399 0.34809,-0.0765 z"
   id="path54" />&#10;<path
   fill="#000000"
   opacity="1"
   stroke="none"
   d="m 195.93536,57.186187 c 0.0252,2.077278 0.0252,3.691353 0.0252,5.560669 -2.28372,0 -4.33725,0 -6.69944,0 0,-1.951447 0,-4.004395 0,-6.847367 2.12537,0.263222 4.38721,0.54335 6.67424,1.286698 z"
   id="path55" />&#10;<path
   fill="#000000"
   opacity="1"
   stroke="none"
   d="m 216.92987,118.96546 c -0.0346,2.08859 -0.0346,4.21388 -0.0346,7.0341 -2.01027,0 -4.05359,0 -6.55171,-0.0322 -0.45482,-0.0322 -0.38141,0.0369 -0.37772,-0.37344 -0.0232,-2.49321 -0.0502,-4.57607 0.36875,-6.6267 2.53057,0.0573 4.61525,0.0823 6.69992,0.10735 0,0 -0.0701,-0.0724 -0.10468,-0.10913 z"
   id="path56" />&#10;<path
   fill="#000000"
   opacity="1"
   stroke="none"
   d="m 216.99895,63.047301 c 0.0344,-2.107132 0.0344,-4.250923 0.0344,-6.718712 2.06783,0 4.13732,0 6.57701,0 0,1.902115 0,4.07911 0,6.671379 -1.93713,0 -3.87237,0 -6.26333,-0.02914 -0.45572,-0.02915 -0.38253,0.03982 -0.3481,0.07648 z"
   id="path57" />&#10;<path
   fill="#000000"
   opacity="1"
   stroke="none"
   d="m 181.92648,77.039725 c 2.04946,0.0129 4.13543,-0.009 6.66703,0.002 0.44563,0.0325 0.3726,-0.0366 0.36932,0.38347 -0.003,2.34983 -0.003,4.27959 -0.003,6.24969 -2.57087,0 -4.75185,0 -6.92501,0 0,-2.46646 0,-4.60346 0,-6.74044 0,0 -0.0716,0.0707 -0.10808,0.10526 z"
   id="path58" />&#10;<path
   fill="#000000"
   opacity="1"
   stroke="none"
   d="m 195.92551,154.03925 c 2.08861,0.0346 4.21391,0.0346 7.0341,0.0346 0,2.01019 0,4.0535 -0.0321,6.55164 -0.0321,0.45481 0.037,0.3814 -0.37339,0.3777 -2.49342,-0.0254 -4.57647,-0.0471 -6.65954,-0.0688 0,0 0.07,0.0701 0.0725,-0.34035 0.0242,-2.49344 0.0459,-4.57643 0.0676,-6.65944 -2e-5,0 -0.0725,0.0701 -0.10919,0.10465 z"
   id="path59" />&#10;<path
   fill="#000000"
   opacity="1"
   stroke="none"
   d="m 140.0378,161.06713 c -0.0228,-2.08121 -0.0455,-4.1624 -0.0696,-6.65316 -0.001,-0.40953 -0.0737,-0.33938 0.37168,-0.37191 2.52844,-0.0109 4.61152,0.0108 6.69461,0.0325 0,0 -0.07,-0.0701 -0.0725,0.34035 -0.0242,2.49342 -0.046,4.57643 -0.0677,6.65942 0,0 0.0715,-0.0706 0.10805,-0.10515 -2.04864,-0.013 -4.13383,0.008 -6.62845,0.0295 -0.4094,-5.5e-4 -0.33619,0.0684 -0.33619,0.0684 z"
   id="path60" />&#10;<path
   fill="#000000"
   opacity="1"
   stroke="none"
   d="m 216.68234,146.74594 c 0.11274,2.26505 0.22547,4.53008 0.35002,7.03266 -2.44877,0 -4.51301,0 -6.82406,0 0,-2.11719 0,-4.18451 0,-6.78278 1.91099,0 3.82762,0 6.15019,-0.088 0.40596,-0.088 0.32385,-0.16193 0.32385,-0.16193 z"
   id="path61" />&#10;<path
   fill="#000000"
   opacity="1"
   stroke="none"
   d="m 140.00365,153.96988 c -2.08863,-0.0345 -4.21396,-0.0345 -7.03418,-0.0345 0,-2.01038 0,-4.05371 0.0321,-6.55187 0.0321,-0.45482 -0.037,-0.38139 0.38226,-0.3777 2.46098,0.004 4.50272,0.004 6.51068,0.004 0,2.81789 0,4.94152 0,7.06513 0,0 0.0724,-0.0701 0.10912,-0.10471 z"
   id="path62" />&#10;<path
   fill="#000000"
   opacity="1"
   stroke="none"
   d="m 139.93018,160.96149 c -0.0344,2.10715 -0.0344,4.25098 -0.0344,6.71884 -2.07385,0 -4.14564,0 -6.57702,0 0,-1.90341 0,-4.08304 0,-6.67134 1.93712,0 3.87237,0 6.26336,0.0291 0.45571,0.0291 0.3825,-0.0399 0.34809,-0.0766 z"
   id="path63" />&#10;<path
   fill="#000000"
   opacity="1"
   stroke="none"
   d="m 20.999767,154.0425 c 0.01289,-2.04941 -0.0088,-4.13533 0.002,-6.66689 0.03245,-0.44563 -0.03666,-0.37262 0.37355,-0.36947 2.493099,-0.0232 4.575989,-0.0496 6.626366,0.36992 -0.01081,2.53152 0.0109,4.61711 -0.412602,6.66822 -2.528301,-0.0596 -4.6114,-0.0848 -6.6945,-0.10989 0,0 0.07064,0.0716 0.105225,0.10811 z"
   id="path64" />&#10;<path
   fill="#000000"
   opacity="1"
   stroke="none"
   d="m 223.92975,139.96131 c -0.0179,2.10386 -0.001,4.24441 -0.10388,6.85481 -0.1189,0.46986 -0.0451,0.38774 -0.0144,0.353 -2.04553,-0.0847 -4.12178,-0.13472 -6.66357,-0.30394 -0.46555,-0.11924 -0.38344,-0.0453 -0.34865,-0.0146 0.0348,-2.05281 0.0348,-4.13628 0.0348,-6.84158 2.25314,0 4.27394,0 6.74904,0.029 0.45435,0.029 0.38113,-0.04 0.34668,-0.0767 z"
   id="path65" />&#10;<path
   fill="#000000"
   opacity="1"
   stroke="none"
   d="m 20.999149,140.04352 c 0.03455,-2.08862 0.03455,-4.21394 0.03455,-7.0341 2.010364,0 4.053692,0 6.551834,0.0321 0.454815,0.0321 0.381393,-0.037 0.377681,0.3734 0.02285,2.49333 0.04941,4.57631 -0.370246,6.6268 -2.53032,-0.0575 -4.614418,-0.0824 -6.698513,-0.10734 0,0 0.07014,0.0724 0.104694,0.10911 z"
   id="path66" />&#10;<path
   fill="#ffffff"
   opacity="1"
   stroke="none"
   d="m 174.96454,186.98081 c 0,-4.13446 0,-7.77608 0,-11.69592 6.96286,0 13.70076,0 20.72082,0 0,6.68516 0,13.42292 0,20.44165 -6.68908,0 -13.42671,0 -20.72082,0 0,-2.71029 0,-5.48157 0,-8.74573 m 7.00027,-2.39987 c 0.0738,1.41316 0.14756,2.82631 0.21831,4.18148 2.399,0 4.45125,0 6.57848,0 0,-2.29586 0,-4.34755 0,-7.49456 -2.57424,0.90239 -4.68367,1.64184 -6.79679,3.31308 z"
   id="path67" />&#10;<path
   fill="#ffffff"
   opacity="1"
   stroke="none"
   d="m 140.36302,224.04193 c -0.44691,-2.05059 -0.42521,-4.13362 -0.43605,-6.66204 2.09108,-0.44541 4.21471,-0.44541 7.0326,-0.44541 0,-2.00796 0,-4.0497 -0.0325,-6.54571 2.11858,-0.4543 4.26969,-0.4543 6.76995,-0.4543 0,-2.11789 0,-4.20478 0,-6.61299 7.20504,0 14.06685,0 21.10014,0 0,2.06218 0,4.01385 0,6.51882 -4.40147,0 -8.93153,0 -13.82158,0 0,2.61649 0,4.69033 0,7.13004 -2.43973,0 -4.51831,0 -7.00603,0 0,2.30811 0,4.2507 0.0326,6.64865 -4.36844,0.43378 -8.76942,0.41214 -13.63904,0.42294 z"
   id="path68" />&#10;<path
   fill="#ffffff"
   opacity="1"
   stroke="none"
   d="m 140.33991,154.04206 c -0.44538,-2.09108 -0.44538,-4.21471 -0.44538,-7.0326 -2.00796,0 -4.0497,0 -6.54571,0.0325 -0.4543,-2.10973 -0.4543,-4.25199 -0.4543,-6.74581 2.21577,0 4.28741,0 6.89871,0 0,-2.5263 0,-4.71528 0,-7.28631 2.46158,0 4.39593,0 6.75087,-0.001 0.42058,-0.001 0.35037,-0.0738 0.38295,0.38387 0.0326,2.3882 0.0326,4.31868 0.0326,6.68211 7.28018,0 14.17758,0 21.03991,-0.035 -0.035,-0.035 -0.10507,-0.105 -0.0725,0.34037 0.0108,2.52849 -0.0109,4.61159 0.002,6.6585 0.0351,-0.0362 0.10413,-0.10964 0.10413,-0.10964 -6.89765,0 -13.79529,0 -21.06417,0 0,2.36954 0,4.29996 0.0325,6.68817 -2.05055,0.43607 -4.13363,0.41437 -6.66207,0.42524 z"
   id="path69" />&#10;<path
   fill="#ffffff"
   opacity="1"
   stroke="none"
   d="m 209.57692,174.96703 c 0.45766,2.09105 0.45766,4.21466 0.45766,7.03249 2.00793,0 4.04966,0 6.5457,-0.0325 0.4543,2.09108 0.4543,4.21466 0.4543,7.03254 2.00789,0 4.04959,0 6.54559,-0.0326 0.43265,4.36835 0.41101,8.76925 0.42185,13.63881 -4.43572,0.46866 -8.90395,0.46866 -13.91816,0.46866 0,-4.69338 0,-9.21833 0,-14.09467 -2.60769,0 -4.67581,0 -6.92682,0 0,-4.76529 0,-9.16682 0,-13.98019 2.08896,0 4.02559,0 6.41988,-0.0326 z"
   id="path70" />&#10;<path
   fill="#ffffff"
   opacity="1"
   stroke="none"
   d="m 160.89128,174.94185 c 0,2.13809 0,4.27619 0,6.85279 2.3183,0.12536 4.51775,0.24432 6.88529,0.37236 0,2.2862 0,4.34306 0,6.84613 -6.67408,0 -13.22058,0 -20.18958,0.0879 -0.42248,0.0878 -0.34033,0.16169 -0.34033,0.16169 -0.10959,-2.2799 -0.21919,-4.55983 -0.34692,-7.21727 2.48344,0 4.56304,0 7.01527,0 0,-2.45102 0,-4.53323 0,-7.03527 2.31651,0 4.26244,0 6.62894,3.3e-4 0.42054,3.5e-4 0.34733,-0.0686 0.34733,-0.0686 z"
   id="path71" />&#10;<path
   fill="#ffffff"
   opacity="1"
   stroke="none"
   d="m 174.89563,140.08017 c 2.13405,0 4.2681,0 7.07391,0 0,4.33081 0,8.69283 0.0325,13.52457 -4.53795,0.4697 -9.10837,0.4697 -14.03261,0.4697 0,-2.3749 0,-4.30217 0.0321,-6.68763 0.0321,-0.45816 -0.037,-0.38473 0.38228,-0.38104 2.46107,0.004 4.50288,0.004 6.65076,0.004 0,-2.82778 0,-4.95142 -0.035,-7.03887 -0.035,0.0362 -0.10391,0.10959 -0.10391,0.10959 z"
   id="path72" />&#10;<path
   fill="#ffffff"
   opacity="1"
   stroke="none"
   d="m 147.36412,161.04193 c -0.44803,-2.05056 -0.42633,-4.13357 -0.43718,-6.66194 4.54811,-0.44537 9.12876,-0.44537 13.85033,-0.44537 0,2.55807 0,4.61555 0,7.07487 -4.43137,0 -8.68739,0 -13.41315,0.0324 z"
   id="path73" />&#10;<path
   fill="#ffffff"
   opacity="1"
   stroke="none"
   d="m 195.56607,153.96704 c 0.44692,2.05057 0.42522,4.13356 0.43607,6.66195 -4.36829,0.42018 -8.76911,0.39498 -13.60375,0.36947 -0.4338,-3e-4 -0.36059,0.0687 -0.36059,0.0687 -0.0261,-2.08086 -0.0522,-4.16172 -0.11086,-6.68755 4.36847,-0.42335 8.76947,-0.40172 13.63913,-0.41254 z"
   id="path74" />&#10;<path
   fill="#ffffff"
   opacity="1"
   stroke="none"
   d="m 181.93018,160.96149 c -0.0344,2.10715 -0.0344,4.25098 -0.0344,6.71884 -2.07385,0 -4.14564,0 -6.57702,0 0,-1.90341 0,-4.08304 0,-6.67134 1.93712,0 3.87237,0 6.26336,0.0291 0.45571,0.0291 0.3825,-0.0399 0.34809,-0.0766 z"
   id="path75" />&#10;<path
   fill="#ffffff"
   opacity="1"
   stroke="none"
   d="m 196.02803,209.9307 c -2.14125,0 -4.2825,0 -6.74351,0 0,-2.07479 0,-4.14577 0,-6.57414 1.90918,0 4.0858,0 6.67442,0 0,1.9384 0,3.87233 10e-6,6.22679 2e-5,0.42051 0.0691,0.34735 0.0691,0.34735 z"
   id="path76" />&#10;<path
   fill="#ffffff"
   opacity="1"
   stroke="none"
   d="m 195.92706,161.38971 c 2.05056,-0.43364 4.13361,-0.41195 6.66208,-0.42279 0.44539,2.10451 0.44539,4.24156 0.44539,6.70801 -2.31314,0 -4.49412,0 -7.07495,0 0,-1.97015 0,-3.90002 -0.0325,-6.28522 z"
   id="path77" />&#10;<path
   fill="#ffffff"
   opacity="1"
   stroke="none"
   d="m 160.9989,175.04749 c 0.0344,-2.10715 0.0344,-4.25098 0.0344,-6.71884 2.07385,0 4.14564,0 6.57702,0 0,1.90341 0,4.08304 0,6.67134 -1.93712,0 -3.87237,0 -6.26336,-0.0291 -0.45571,-0.0291 -0.3825,0.0399 -0.34809,0.0766 z"
   id="path78" />&#10;<path
   fill="#ffffff"
   opacity="1"
   stroke="none"
   d="m 140.34848,196.04198 c -0.43236,-2.05057 -0.41066,-4.13365 -0.42149,-6.66214 2.10516,-0.41545 4.24284,-0.3855 6.8501,-0.23634 0.46957,0.11918 0.38742,0.0453 0.35264,0.0147 -0.0348,2.05259 -0.0348,4.13586 -0.0348,6.85128 -2.25165,0 -4.27202,0 -6.74646,0.0325 z"
   id="path79" />&#10;<path
   fill="#ffffff"
   opacity="1"
   stroke="none"
   d="m 195.9223,210.0383 c 2.11403,0.0344 4.26474,0.0344 6.72858,0.0344 0,2.10524 0,4.18222 0,6.91234 -1.85259,0 -3.93059,0 -6.48813,-0.11865 -0.47951,-0.11864 -0.39726,-0.0451 -0.36256,-0.0145 0.0795,-1.99208 0.12424,-4.01485 0.19842,-6.47945 0.0294,-0.44183 -0.0396,-0.36867 -0.0763,-0.33423 z"
   id="path80" />&#10;<path
   fill="#ffffff"
   opacity="1"
   stroke="none"
   d="m 28.039188,140.07422 c -0.02656,-2.08296 -0.05312,-4.16594 -0.112213,-6.6943 2.12162,-0.44541 4.275772,-0.44541 6.733742,-0.44541 0,-6.85586 0,-13.71361 0,-20.94131 -2.171219,0 -4.242554,0 -6.674252,0 0,-2.43199 0,-4.50771 0,-6.98374 -2.301186,0 -4.241108,0 -6.636433,0.0326 -0.433765,-4.36839 -0.412132,-8.769325 -0.42295,-13.638925 2.116634,-0.46867 4.265716,-0.46867 6.776832,-0.46867 0,2.24378 0,4.31961 0,6.77719 2.4226,0 4.495087,0 6.948403,0 0,2.423435 0,4.497855 0,7.110935 7.201744,0 14.060402,0 21.306915,0 0,2.46206 0,4.39917 0.0015,6.75922 0.0015,0.42294 0.07397,0.35286 -0.395752,0.38528 -4.725753,0.0324 -8.981788,0.0324 -13.413154,0.0324 0,2.45832 0,4.51612 0,7.07488 4.721557,0 9.302208,0 13.847793,-0.0349 -0.03508,-0.035 -0.105229,-0.10484 -0.07268,0.34051 0.05953,2.52806 0.0865,4.61075 -0.356811,6.66145 -4.738136,-0.032 -9.006005,-0.032 -13.412644,-0.032 0,2.48169 0,4.54705 0,7.15593 2.366639,0 4.569191,0 6.470292,0 0,2.62943 0,4.69696 0,7.10787 -2.417824,0 -4.494973,0 -6.588685,0 0,2.50671 0,4.65387 -0.445732,6.76852 -2.530121,-0.0575 -4.614509,-0.0824 -6.663871,-0.0723 0.03503,0.035 0.105049,0.10517 0.07253,-0.34909 -0.03252,-2.49607 -0.03252,-4.5379 -0.03252,-6.68585 -2.827767,0 -4.951416,0 -7.039231,0.0353 0.03584,0.0353 0.108906,0.10443 0.10891,0.10443 z"
   id="path81" />&#10;<path
   fill="#ffffff"
   opacity="1"
   stroke="none"
   d="m 62.707798,98.285855 c 4.461854,-0.092 8.923704,-0.18399 13.821224,-0.27753 0.43567,-0.002 0.36553,-0.0739 0.39804,0.38138 0.0325,2.385185 0.0325,4.315055 0.0325,6.285225 2.58083,0 4.76181,0 7.07496,0 0,-2.46645 0,-4.6035 -0.035,-6.705515 -0.035,0.035 -0.10502,0.10511 0.34922,0.0726 2.49604,-0.0325 4.53785,-0.0325 6.68581,-0.0325 0,-2.82774 0,-4.95137 -0.035,-7.03999 -0.035,0.035 -0.10488,0.10517 0.34048,0.0726 2.52837,-0.0109 4.61136,0.0109 6.65944,-0.003 -0.0349,-0.0351 -0.1048,-0.10522 -0.0723,0.36682 0.0325,7.16658 0.0325,13.861115 0.0325,20.885745 -2.77821,0 -4.85255,0 -7.06515,0 0,2.49563 0,4.63895 0.035,6.74731 0.035,-0.0349 0.10501,-0.10487 -0.36706,-0.0724 -11.87073,0.0109 -23.26939,-0.0108 -34.668042,-0.0324 0,0 0.07015,0.0699 0.07267,-0.34057 0.02422,-2.49344 0.04593,-4.57645 0.06763,-6.65944 0,0 -0.07247,0.0701 -0.109184,0.10461 2.079834,0.0345 4.196396,0.0345 7.03038,0.0345 0,-4.41302 0,-8.72135 -0.08727,-13.449935 -0.08726,-0.42024 -0.160827,-0.33797 -0.160827,-0.33797 z"
   id="path82" />&#10;<path
   fill="#ffffff"
   opacity="1"
   stroke="none"
   d="m 83.895652,70.080295 c 2.08259,-0.0235 4.16517,-0.0469 6.65838,-0.0719 0.41062,-0.002 0.34057,-0.0739 0.37306,0.39813 0.0109,7.20404 -0.0108,13.93606 -0.0324,20.66808 0,0 0.0699,-0.0702 -0.34941,-0.0726 -2.46109,-0.002 -4.50289,-0.002 -6.65075,-0.002 0,2.82777 0,4.95138 0,7.07501 0,0 0.07,-0.0701 -0.34037,-0.0726 -2.49346,-0.0242 -4.57653,-0.0459 -6.6596,-0.0676 0,0 0.0701,0.0724 0.10468,0.10912 0.0345,-2.10932 0.0345,-4.25534 0.0345,-6.75764 -2.22537,0 -4.30055,0 -6.7247,0 0,-2.52708 0,-4.70625 0,-7.27106 2.11154,0 4.18492,0 6.66084,0 0,-2.29432 0,-4.23179 -0.001,-6.58986 -0.002,-0.42058 -0.0739,-0.35043 0.38035,-0.38295 2.49604,-0.0325 4.53785,-0.0325 6.68581,-0.0325 0,-2.82774 0,-4.95137 -0.035,-7.03879 -0.035,0.0362 -0.10392,0.10962 -0.10392,0.10963 z"
   id="path83" />&#10;<path
   fill="#ffffff"
   opacity="1"
   stroke="none"
   d="m 56.027439,90.931135 c -2.080811,0.0226 -4.161614,0.0451 -6.652588,0.0675 -0.410164,-2e-4 -0.33696,0.0688 -0.33696,0.0688 0,-2.15067 0,-4.30134 0,-6.8565 -2.253197,-0.11196 -4.340866,-0.2157 -6.751617,-0.3355 0,-2.05205 0,-4.13023 0,-6.59411 4.152229,0 8.566558,0 13.540031,0 0,-4.88074 0,-9.41535 0,-14.10255 2.504311,0 4.454872,0 6.772636,0 0,6.72164 0,13.56767 0,20.79296 -2.063179,0 -4.15007,0 -6.640022,0 0,2.30634 0,4.24892 -2.36e-4,6.61209 -2.29e-4,0.42059 0.06876,0.34739 0.06876,0.34739 z"
   id="path84" />&#10;<path
   fill="#ffffff"
   opacity="1"
   stroke="none"
   d="m 76.927042,56.389891 c 2.1023,-0.455413 4.23712,-0.455413 7.03256,-0.455413 0,4.478134 0,8.841743 -0.032,13.675587 -0.032,0.47022 0.0369,0.3968 -0.38236,0.39312 -2.46109,-0.004 -4.50288,-0.004 -6.65076,-0.004 0,2.82776 0,4.95138 0,7.075 0,0 0.0724,-0.0701 0.10911,-0.10468 -2.11296,-0.0345 -4.26264,-0.0345 -6.7257,-0.0345 0,-4.51679 0,-9.03843 0,-13.927173 2.15033,0 4.22068,0 6.68165,0 0,-2.289597 0,-4.226212 -0.0325,-6.618241 z"
   id="path85" />&#10;<path
   fill="#ffffff"
   opacity="1"
   stroke="none"
   d="m 21.349987,84.042005 c -0.43372,-4.36835 -0.412087,-8.76925 -0.422928,-13.63881 4.559013,-0.46866 9.150505,-0.46866 13.884628,-0.46866 0,2.46826 0,4.41655 0,6.87351 -2.08184,0.11143 -4.282989,0.22926 -6.832027,0.36571 0,2.27765 0,4.36358 0,6.8357 -2.297169,0 -4.235749,0 -6.629673,0.0326 z"
   id="path86" />&#10;<path
   fill="#ffffff"
   opacity="1"
   stroke="none"
   d="m 55.921787,91.038775 c 2.109131,0.0344 4.254921,0.0344 7.023308,0.0344 0,2.10112 0,4.17844 -0.118645,6.73421 -0.118652,0.47845 -0.04508,0.39618 -0.0144,0.3614 -2.053436,-0.0348 -4.137565,-0.0348 -6.842979,-0.0348 0,-2.25206 0,-4.27307 0.02918,-6.74849 0.02918,-0.45441 -0.0398,-0.38121 -0.07647,-0.34677 z"
   id="path87" />&#10;<path
   fill="#ffffff"
   opacity="1"
   stroke="none"
   d="m 48.930271,90.961715 c -0.03442,2.10713 -0.03442,4.25091 -0.03442,6.71869 -2.074089,0 -4.145866,0 -6.577164,0 0,-1.9036 0,-4.08321 0,-6.6714 1.937241,0 3.872505,0 6.263489,0.0292 0.455719,0.0292 0.382515,-0.0398 0.348099,-0.0765 z"
   id="path88" />&#10;<path
   fill="#ffffff"
   opacity="1"
   stroke="none"
   d="m 21.002021,69.619265 c -2.050556,0.43363 -4.133628,0.41195 -6.662082,0.42279 -0.445389,-2.10453 -0.445389,-4.24157 -0.445389,-6.708011 2.313141,0 4.494129,0 7.074959,0 0,1.970151 0,3.900021 0.03251,6.285221 z"
   id="path89" />&#10;<path
   fill="#ffffff"
   opacity="1"
   stroke="none"
   d="m 41.921772,63.038756 c 2.107132,0.03442 4.25093,0.03442 6.718689,0.03442 0,2.074085 0,4.145855 0,6.577165 -1.903595,0 -4.083199,0 -6.671395,0 0,-1.93724 0,-3.87251 0.02917,-6.26349 0.02917,-0.455719 -0.03979,-0.382515 -0.07646,-0.348099 z"
   id="path90" />&#10;<path
   fill="#ffffff"
   opacity="1"
   stroke="none"
   d="m 119.03891,56.074149 c 0,-4.586594 0,-9.173195 0,-13.870323 2.43245,0 4.49664,0 6.91953,0 0,2.262649 0,4.334709 0,6.795692 2.29226,0 4.22877,0 6.62071,-0.03252 0.45541,2.118294 0.45541,4.269119 0.45541,6.848145 2.10306,0.09822 4.18971,0.195678 6.60391,0.308433 0,2.048317 0,4.119148 0,6.58152 -1.82893,0 -3.90225,0 -6.3273,0 0,2.429613 0,4.504383 0,7.136183 1.89032,0 4.08626,0 6.46306,0 0,2.62083 0,4.69165 0,7.13674 -2.23971,0 -4.32679,0 -6.59897,0 0,2.44137 0,4.51119 0,7.03188 4.36791,0 8.64365,0 13.3544,-0.002 0.43502,-0.002 0.36499,-0.074 0.39743,0.39466 0.0108,4.86961 -0.0108,9.27059 0.003,13.63533 0.035,-0.0362 0.10412,-0.10963 0.10412,-0.10963 -2.15393,0 -4.30786,0 -6.81747,0 0,2.269381 0,4.360591 0,6.844711 -4.75986,0 -9.17757,0 -13.9231,0 0,2.44493 0,4.51515 0,6.98132 4.16388,0 8.57962,0 13.33329,0 0,2.44716 0,4.51758 0,7.14524 -4.26433,0 -8.81346,0 -13.50551,0 0,2.50299 0,4.45802 0,6.79452 1.98964,0 4.06494,0 6.49464,0 0,2.43912 0,4.51709 0,6.98364 -1.76809,0 -3.84599,0 -6.48687,0 0,2.56305 0,4.7721 0,7.13532 -2.63073,0 -4.70475,0 -7.15732,0 0,-2.26161 0,-4.34172 0,-6.61096 -2.45194,0 -4.52599,0 -6.97947,0 0,2.23308 0,4.31318 0,6.76434 -2.4479,0 -4.5279,0 -6.81407,0 0,2.45053 0,4.52467 0,6.97946 2.18589,0 4.26525,0 6.56256,0 0,2.44884 0,4.52243 0,7.05287 -6.67607,0 -13.288738,0 -20.338698,0.002 -0.4373,0.002 -0.36734,0.074 -0.39977,-0.39471 -0.0594,-4.86934 -0.0863,-9.27 0.34159,-13.63853 2.49822,0.0321 4.5416,0.0321 6.55263,0.0321 0,-2.82234 0,-4.94821 0.45496,-7.03737 2.388878,0.0367 4.322828,0.0367 6.261348,0.0367 0,-2.5851 0,-4.76367 0,-6.67447 -2.42835,0 -4.49933,0 -6.574248,0 0,2.46097 0,4.6022 -0.44601,6.71405 -2.53185,-0.008 -4.61766,0.0139 -6.66831,-0.43286 0.0603,-4.86928 0.0854,-9.27017 0.11055,-13.67105 0,0 -0.07,0.0699 0.36707,0.0724 7.03927,0.002 13.641488,0.002 20.357798,0.002 0,-2.50929 0,-4.57864 0,-7.02052 -2.27303,0 -4.34903,0 -6.60501,0 0,-2.44249 0,-4.51089 0,-7.1378 4.69017,0 9.21907,0 13.47464,0 0,-7.290241 0,-14.019841 0,-20.547331 -4.75716,0 -9.17494,0 -13.74396,0 0,2.45581 0,4.61261 0.0367,6.73501 0.0367,-0.0344 0.10564,-0.10763 -0.33912,-0.0736 -2.52582,0.0124 -4.606858,-0.009 -6.687918,-0.0309 0,0 0.0699,0.0701 0.0724,-0.3646 0.002,-4.69879 0.002,-8.96283 0.002,-13.73236 9.599268,0 18.776778,0 27.662428,0 0,-2.60185 0,-4.6782 0,-7.09688 -2.41504,0 -4.49381,0 -6.59743,0 0,-2.50909 0,-4.65759 -0.035,-6.771059 -0.035,0.03505 -0.1051,0.105041 0.35022,0.07252 2.38518,-0.03251 4.31505,-0.03251 6.28522,-0.03251 0,-2.580826 0,-4.761811 0,-7.074959 -2.46645,0 -4.6035,0 -6.70477,0.03528 0.0358,0.03529 0.1087,0.104378 0.1087,0.104378 m 8.56839,34.934316 c -0.69557,2.21413 -1.39113,4.42826 -2.09828,6.67931 3.22511,0 5.27873,0 7.17781,0 0,-2.37479 0,-4.42801 0,-6.68301 -1.56723,0 -2.85811,0 -5.07953,0.004 z"
   id="path91" />&#10;<path
   fill="#ffffff"
   opacity="1"
   stroke="none"
   d="m 181.57915,76.966995 c 0.45541,2.10445 0.45541,4.24145 0.45541,6.70791 2.17316,0 4.35414,0 6.92501,0 0,-1.9701 0,-3.89986 -0.0326,-6.28497 6.69945,-0.4337 13.43146,-0.41205 20.63547,-0.4229 0.47201,4.53621 0.47201,9.10489 0.47201,14.0426 -2.36781,0 -4.29326,0 -6.64659,-0.42163 -0.42789,-2.3569 -0.42789,-4.29215 -0.42789,-6.22936 -2.58822,0 -4.76783,0 -6.67138,0 0,2.43132 0,4.5031 0,6.57712 2.4678,0 4.6116,0 6.7554,0 0,2.14298 0,4.28596 0,6.78062 -2.2307,0 -4.30393,0 -6.73072,0 0,2.517305 0,4.691725 0,7.283095 4.26557,0 8.52369,0 13.25159,-0.0324 0.44457,2.05057 0.41937,4.13356 0.39574,6.62714 0.002,0.41057 0.074,0.34045 -0.39801,0.37293 -7.07073,0.0325 -13.6694,0.0325 -20.62781,0.0325 0,-2.48675 0,-4.56035 0,-6.80794 -2.43791,0 -4.50742,0 -6.80922,0 -0.12756,2.37346 -0.24614,4.57955 -0.38275,7.12155 -2.56004,0 -4.63235,0 -6.4496,0 0,2.46019 0,4.5302 0,6.94813 2.412,0 4.49193,0 6.60126,0 0,2.51329 0,4.66325 0.0351,6.77699 0.035,-0.0362 0.10412,-0.10964 0.10412,-0.10964 -2.13461,0 -4.26922,0 -7.07409,0 0,4.48409 0,8.84758 -0.032,13.68131 -0.032,0.47021 0.0369,0.3968 -0.37346,0.39316 -2.4935,-0.0253 -4.57658,-0.047 -6.65968,-0.0687 0,0 0.07,0.07 0.0725,-0.35275 0.002,-2.35326 0.002,-4.28374 0.002,-6.64708 -7.2801,0 -14.17753,0 -21.07498,0 0,0 0.0702,0.0724 0.10474,0.10908 0.0345,-2.11468 0.0345,-4.26611 0.0345,-6.76721 2.11338,0 4.19966,0 6.65741,0 0,-4.74855 0,-9.16145 0,-14.13206 4.8743,0 9.40343,0 14.08103,0 0,-2.6225 0,-4.68723 0,-7.1202 -6.92231,0 -13.66613,0 -20.80277,0 0,-2.30096 0,-4.23997 0.0322,-6.637265 0.0322,-0.45827 -0.0369,-0.38486 0.38571,-0.3812 2.3491,0.004 4.27556,0.004 6.6471,0.004 0,-4.93571 0,-9.50538 -0.035,-14.0388 -0.035,0.0363 -0.10413,0.10969 -0.10413,0.10969 6.90542,0 13.81081,0 21.069,0 0,-2.54324 0,-4.61277 0,-7.08077 2.2874,0 4.22344,0 6.61489,-0.0325 m -20.61427,18.48343 c 0.63328,0.85043 1.22454,2.39525 1.90683,2.43655 3.90139,0.23616 7.82444,0.11473 11.90994,0.11473 0,-2.45569 0,-4.5096 0,-6.99702 -3.71788,0 -7.3237,0.24628 -10.8786,-0.0736 -3.15943,-0.2843 -3.07077,1.47729 -2.93817,4.51934 m 24.49826,-4.44591 c -6.49416,-0.28117 -2.36281,4.30107 -3.55341,6.64236 2.6801,0 4.84523,0 7.77292,0 -2.21672,-2.21058 2.1436,-6.38821 -4.21951,-6.64236 z"
   id="path92" />&#10;<path
   fill="#ffffff"
   opacity="1"
   stroke="none"
   d="m 90.929992,153.96549 c -0.0345,4.53471 -0.0345,9.10612 -0.0345,14.03377 -2.23226,0 -4.15911,0 -6.50881,0.002 -0.42284,0.002 -0.35226,0.0734 -0.38471,-0.39526 -0.0571,-4.87148 -0.0818,-9.27428 0.33859,-13.64195 2.52802,0.0603 4.61092,0.0855 6.69383,0.1107 0,-2e-5 -0.07,-0.0724 -0.10443,-0.10916 z"
   id="path93" />&#10;<path
   fill="#ffffff"
   opacity="1"
   stroke="none"
   d="m 84.001922,174.63019 c -2.05087,0.41936 -4.13446,0.39433 -6.62773,0.37061 -0.40967,0.001 -0.33957,0.0736 -0.37213,-0.38065 -0.0326,-2.49594 -0.0326,-4.53766 -0.0326,-6.54559 2.81778,0 4.94136,0 7.06494,0 0,0 -0.0706,-0.0715 -0.10517,-0.10803 -0.01,2.04873 0.0151,4.13401 0.0726,6.66366 z"
   id="path94" />&#10;<path
   fill="#fefefe"
   opacity="1"
   stroke="none"
   d="m 7.005413,34.928565 c 0,-9.455097 0,-18.418011 0,-27.6508367 11.672538,0 23.068588,0 34.729324,0 0,11.3986507 0,22.7952687 0,34.4599717 -11.393036,0 -22.791443,0 -34.729324,0 0,-2.110748 0,-4.213852 0,-6.809135 m 10.610565,0.07425 c 5.753502,0 11.507004,0 17.003586,0 0,-7.425743 0,-14.16724 0,-20.65065 -7.088116,0 -13.829735,0 -20.653115,0 0,6.170605 -0.123214,12.000828 0.120247,17.815704 0.04098,0.978898 1.666023,1.891465 3.529282,2.834946 z"
   id="path95" />&#10;<path
   fill="#fefefe"
   opacity="1"
   stroke="none"
   d="M 9.188144,224.00071 C 8.139869,222.888 7.093864,221.784 7.080177,220.66735 6.95372,210.35091 7.005547,200.03228 7.005547,189.35982 c 11.505726,0 22.904228,0 34.648323,0 0,11.15756 0,22.55815 0,34.64369 -10.491974,0 -21.238293,0 -32.465729,-0.003 m 17.242237,-27.99457 c -4.096569,0 -8.193134,0 -12.163341,0 0,7.34034 0,14.07823 0,20.69424 7.042816,0 13.780826,0 20.391655,0 0,-7.04437 0,-13.78235 0,-20.69424 -2.617615,0 -4.932327,0 -8.228314,0 z"
   id="path96" />&#10;<path
   fill="#fefefe"
   opacity="1"
   stroke="none"
   d="m 189.0054,16.048194 c 0,-3.139202 0,-5.784424 0,-8.7342867 11.59865,0 22.99466,0 34.69248,0 0,11.2893207 0,22.6867017 0,34.3881107 -11.28018,0 -22.68007,0 -34.69248,0 0,-8.315689 0,-16.737763 0,-25.653824 m 7.69257,18.896766 c 6.62083,0 13.24167,0 20.06048,0 0,-7.062976 0,-13.799423 0,-20.737518 -6.92291,0 -13.65936,0 -20.73585,0 0,6.808449 0,13.427868 0.67537,20.737518 z"
   id="path97" />&#10;<path
   fill="#ffffff"
   opacity="1"
   stroke="none"
   d="m 168.00205,48.620269 c -2.0911,0.454239 -4.21471,0.454239 -7.04248,0.454239 0,-2.147866 0,-4.189667 -0.0325,-6.685761 2.09111,-0.454292 4.21474,-0.454292 7.04248,-0.454292 0,2.147949 0,4.189758 0.0325,6.685814 z"
   id="path98" />&#10;<path
   fill="#ffffff"
   opacity="1"
   stroke="none"
   d="m 160.58945,62.966887 c 0.44496,4.546948 0.44496,9.126448 0.44496,14.052258 -2.55701,0 -4.63107,0 -7.0748,0 0,2.2812 0,4.21519 -0.0322,6.60516 -0.0322,0.45598 0.0369,0.38255 -0.37341,0.37885 -2.49337,-0.0254 -4.57636,-0.0471 -6.65937,-0.0688 0,0 0.07,0.0724 0.10448,0.10908 0.0345,-4.54398 0.0345,-9.12467 0.0345,-14.04972 2.41024,0 4.47781,0 6.9366,0 0,-2.28083 0,-4.21436 2.4e-4,-6.568505 2.6e-4,-0.420593 -0.0687,-0.347389 -0.0687,-0.347389 2.08093,-0.02612 4.16185,-0.05224 6.68773,-0.110924 z"
   id="path99" />&#10;<path
   fill="#ffffff"
   opacity="1"
   stroke="none"
   d="m 154.00736,62.970183 c -2.10712,-0.03442 -4.25092,-0.03442 -6.71872,-0.03442 0,-2.07402 0,-4.145798 0,-6.577118 1.90355,0 4.08316,0 6.67138,0 0,1.937203 0,3.87246 -0.0291,6.263443 -0.0292,0.455719 0.0398,0.382515 0.0765,0.348091 z"
   id="path100" />&#10;<path
   fill="#ffffff"
   opacity="1"
   stroke="none"
   d="m 97.927032,49.389876 c 2.110748,-0.455414 4.253998,-0.455414 6.749088,-0.455414 0,-2.074142 0,-4.147804 0,-6.581085 2.51889,0 4.69526,0 7.28311,0 0,4.265351 0,8.523575 0.002,13.216767 0.002,0.434974 0.0735,0.364349 -0.38186,0.396865 -2.38518,0.03251 -4.31505,0.03251 -6.28522,0.03251 0,2.580826 0,4.761811 0,7.074959 2.46644,0 4.6035,0 6.70549,-0.035 -0.0351,-0.035 -0.10503,-0.105103 -0.0725,0.352608 0.0325,2.388196 0.0325,4.318666 0.0325,6.542446 -7.27019,0 -14.167608,0 -21.065028,0 0,0 0.0701,0.0724 0.10452,0.10911 0.0344,-4.5441 0.0344,-9.124937 0.0344,-14.050184 2.41045,0 4.47806,0 6.926,0 0,-2.281052 0,-4.214608 -0.0325,-6.603585 z"
   id="path101" />&#10;<path
   fill="#ffffff"
   opacity="1"
   stroke="none"
   d="m 76.998812,49.047255 c 0.0344,-2.107132 0.0344,-4.25093 0.0344,-6.718689 2.07408,0 4.14585,0 6.57716,0 0,1.903595 0,4.083199 0,6.671395 -1.93724,0 -3.87251,0 -6.26349,-0.02917 -0.45572,-0.02917 -0.38252,0.03979 -0.3481,0.07646 z"
   id="path102" />&#10;<path
   fill="#ffffff"
   opacity="1"
   stroke="none"
   d="m 104.96668,18.89646 c -0.002,-1.756153 -0.002,-3.047031 -0.002,-4.614261 2.25499,0 4.30822,0 6.68302,0 0,1.899055 0,3.952678 0,7.177788 -2.25104,-0.70715 -4.46518,-1.402703 -6.68115,-2.563527 z"
   id="path103" />&#10;<path
   fill="#ffffff"
   opacity="1"
   stroke="none"
   d="m 216.58034,97.966975 c 0.45424,2.091115 0.45424,4.214735 0.45424,7.042485 -2.14788,0 -4.18968,0 -6.68578,0.0325 -0.4543,-2.09111 -0.4543,-4.21474 -0.4543,-7.042485 2.14797,0 4.18979,0 6.68584,-0.0325 z"
   id="path104" />&#10;<path
   fill="#ffffff"
   opacity="1"
   stroke="none"
   d="m 210.34874,77.041985 c -0.45424,-2.0911 -0.45424,-4.21472 -0.45424,-7.04247 2.14789,0 4.18968,0 6.68578,-0.0325 0.4543,2.0911 0.4543,4.21474 0.4543,7.04247 -2.14797,0 -4.18978,0 -6.68584,0.0325 z"
   id="path105" />&#10;<path
   fill="#ffffff"
   opacity="1"
   stroke="none"
   d="m 56.034305,167.92978 c -4.569832,0 -9.139671,0 -14.064537,0 0,-2.22731 0,-4.15381 -0.0019,-6.50317 -0.0019,-0.42285 -0.07351,-0.35225 0.396209,-0.38468 4.831894,-0.0324 9.194077,-0.0324 13.530419,-0.0324 0,2.79641 0,4.93073 0.03531,7.02921 0.03532,-0.0358 0.104461,-0.10892 0.104461,-0.10892 z"
   id="path106" />&#10;<path
   fill="#ffffff"
   opacity="1"
   stroke="none"
   d="m 63.03371,174.9285 c -2.082748,0.0269 -4.165497,0.0538 -6.693756,0.1134 -0.420555,-2.05145 -0.395592,-4.13557 -0.338142,-6.66589 0.03249,-0.44623 -0.03665,-0.37314 0.382324,-0.36984 2.460708,0.003 4.502434,0.003 6.51033,0.003 0,2.8178 0,4.94136 0.03507,7.02871 0.03508,-0.0362 0.104172,-0.10967 0.104172,-0.10967 z"
   id="path107" />&#10;<path
   fill="#ffffff"
   opacity="1"
   stroke="none"
   d="m 34.890026,160.93486 c 0,2.13683 0,4.27365 0,6.74003 -2.16864,0 -4.349518,0 -6.920117,0 0,-1.96993 0,-3.89968 -0.0015,-6.24993 -0.0015,-0.42053 -0.07395,-0.3504 0.370826,-0.38307 2.528313,-0.0109 4.611862,0.0109 6.65963,-0.003 -0.03578,-0.0353 -0.10881,-0.10442 -0.10881,-0.10442 z"
   id="path108" />&#10;<path
   fill="#ffffff"
   opacity="1"
   stroke="none"
   d="m 42.002559,160.96918 c -2.049415,-0.0129 -4.135345,0.009 -6.666908,-0.002 -0.445625,-0.0325 -0.372597,0.0367 -0.369492,-0.3728 0.0249,-2.49302 0.04669,-4.57656 0.03343,-6.62506 -0.03505,0.035 -0.105148,0.10511 0.339463,0.0724 2.528007,-0.0596 4.611404,-0.0865 6.662636,0.33249 -0.0572,2.53061 -0.08225,4.61531 -0.107293,6.7 0,0 0.07165,-0.0706 0.108162,-0.10518 z"
   id="path109" />&#10;<path
   fill="#ffffff"
   opacity="1"
   stroke="none"
   d="m 20.927059,154.38863 c 2.050583,-0.42911 4.133682,-0.40396 6.627418,-0.38081 0.410637,-0.002 0.33997,-0.0734 0.372681,0.3711 0.0109,2.52823 -0.01091,4.61194 -0.03272,6.69564 0,0 0.07241,-0.0701 0.109124,-0.10468 -2.087845,-0.0345 -4.212399,-0.0345 -7.043984,-0.0345 0,-2.00854 0,-4.0505 -0.03252,-6.54672 z"
   id="path110" />&#10;<path
   fill="#ffffff"
   opacity="1"
   stroke="none"
   d="m 111.92664,56.039695 c 2.04916,0.01284 4.13478,-0.0089 6.66635,0.0019 0.44592,0.03254 0.37297,-0.03655 0.36975,0.37355 -0.0249,2.493172 -0.0466,4.576248 -0.0683,6.659317 0,0 0.0701,-0.06999 -0.3403,-0.07251 -2.49345,-0.02421 -4.57651,-0.0459 -6.65958,-0.06759 0,0 0.07,0.07011 0.0725,-0.340278 0.0242,-2.493462 0.0459,-4.576538 0.0676,-6.659607 0,0 -0.0715,0.07062 -0.108,0.105202 z"
   id="path111" />&#10;<path
   fill="#ffffff"
   opacity="1"
   stroke="none"
   d="m 209.88873,118.93502 c 0.0269,2.08285 0.0539,4.16571 0.11341,6.69395 -4.53739,0.44539 -9.1073,0.44539 -14.03269,0.44539 0,2.23187 0,4.15831 0.0326,6.5424 -4.53885,0.45765 -9.11028,0.45765 -14.03261,0.45765 0,-2.37485 0,-4.30214 0.0322,-6.6876 0.0321,-0.45816 -0.0369,-0.38475 0.38348,-0.38104 2.35643,0.004 4.29244,0.004 6.57987,0.004 0,-2.46804 0,-4.53764 0,-6.9351 7.25875,0 14.16426,0 21.0335,-0.0351 -0.0363,-0.0351 -0.10969,-0.10427 -0.10968,-0.10427 z"
   id="path112" />&#10;<path
   fill="#ffffff"
   opacity="1"
   stroke="none"
   d="m 20.927127,140.37937 c 2.051423,-0.42002 4.135521,-0.39507 6.665837,-0.33762 0.44622,0.0325 0.37315,-0.0367 0.369846,0.37343 -0.02498,2.49319 -0.04666,4.57628 -0.03304,6.62364 0.0353,-0.0357 0.104389,-0.10869 0.104389,-0.10869 -2.082893,0.0264 -4.165783,0.0528 -6.694195,0.11177 -0.423736,-2.05075 -0.40195,-4.13415 -0.412837,-6.66253 z"
   id="path113" />&#10;<path
   fill="#ffffff"
   opacity="1"
   stroke="none"
   d="m 70.352112,189.04195 c -0.4576,-2.1048 -0.4576,-4.24214 -0.4576,-6.84084 -2.16949,-0.11409 -4.37003,-0.22982 -6.925049,-0.36419 0,-2.13542 0,-4.06603 0.03213,-6.45252 0.03212,-0.4559 -0.03697,-0.38246 0.396622,-0.37869 4.83453,0.0254 9.23547,0.0471 13.63641,0.0687 0,0 -0.0701,-0.0723 -0.10456,-0.10905 -0.0344,4.53462 -0.0344,9.10595 -0.0344,14.04406 -2.23216,0 -4.15903,0 -6.5435,0.0326 z"
   id="path114" />&#10;<path
   fill="#ffffff"
   opacity="1"
   stroke="none"
   d="m 217.00203,118.62035 c -2.05215,0.4292 -4.13683,0.40416 -6.6674,0.34689 -0.44591,-0.0322 -0.37249,0.037 -0.36878,-0.37333 0.0254,-2.49331 0.0471,-4.57628 0.0688,-6.65928 0,0 -0.0725,0.0701 -0.10917,0.10468 2.08783,0.0345 4.21238,0.0345 7.044,0.0345 0,2.0083 0,4.05027 0.0325,6.54649 z"
   id="path115" />&#10;<path
   fill="#ffffff"
   opacity="1"
   stroke="none"
   d="m 27.999679,154.0423 c 0.01286,-2.04913 -0.0088,-4.13472 0.002,-6.66624 0.03252,-0.44593 -0.03658,-0.37297 0.37352,-0.36977 2.493194,0.0249 4.576286,0.0466 6.659378,0.0683 0,0 -0.07002,-0.0701 -0.07238,0.33963 -0.02415,2.49327 -0.04594,4.57681 -0.06772,6.66035 0,0 0.0701,-0.0701 -0.339622,-0.0725 -2.493271,-0.0242 -4.576821,-0.046 -6.660374,-0.0677 0,0 0.07067,0.0714 0.105232,0.10791 z"
   id="path116" />&#10;<path
   fill="#000000"
   opacity="1"
   stroke="none"
   d="m 181.96666,184.11505 c 2.11127,-1.20535 4.2207,-1.9448 6.79494,-2.84719 0,3.14701 0,5.1987 0,7.49456 -2.12723,0 -4.17948,0 -6.57848,0 -0.0708,-1.35517 -0.14453,-2.76832 -0.21646,-4.64737 z"
   id="path117" />&#10;<path
   fill="#000000"
   opacity="1"
   stroke="none"
   d="m 146.92705,133.39228 c 6.86487,-0.45769 13.7623,-0.45769 21.0424,-0.45769 0,2.36334 0,4.29382 0.0326,6.68205 -6.86481,0.45775 -13.76221,0.45775 -21.04239,0.45775 0,-2.36343 0,-4.29391 -0.0326,-6.68211 z"
   id="path118" />&#10;<path
   fill="#000000"
   opacity="1"
   stroke="none"
   d="m 167.927,140.37979 c 2.05057,-0.42369 4.13365,-0.402 6.66214,-0.41287 0.44541,2.09111 0.44541,4.21475 0.44541,7.04253 -2.14788,0 -4.18969,0 -6.68581,0.0325 -0.4326,-2.05059 -0.4109,-4.13369 -0.42174,-6.66218 z"
   id="path119" />&#10;<path
   fill="#000000"
   opacity="1"
   stroke="none"
   d="m 90.562432,118.96704 c 0.44694,4.3684 0.42182,8.76929 0.39823,13.60398 0.002,0.43379 0.074,0.3636 -0.39575,0.39602 -4.73188,0.0324 -8.99399,0.0324 -13.78172,0.0324 0,-2.58291 0,-4.77088 0,-6.83624 -2.48588,0 -4.43247,0 -6.74264,0 0,4.73534 0,9.32297 -0.44592,13.87842 -2.53064,-0.0572 -4.61535,-0.0822 -6.665094,-0.0722 0.03497,0.035 0.104912,0.10512 0.07246,-0.36454 -0.03246,-4.83182 -0.03246,-9.19397 -0.03246,-13.67044 -2.806274,0 -4.94059,0 -7.038727,0.035 0.03618,0.035 0.109604,0.10396 0.109604,0.10396 -0.02697,-2.0827 -0.05394,-4.16539 -0.113472,-6.69345 11.366098,-0.42371 22.764758,-0.40207 34.635488,-0.41294 z"
   id="path120" />&#10;<path
   fill="#000000"
   opacity="1"
   stroke="none"
   d="m 42.039096,147.07425 c 0,-2.14715 0,-4.29431 0,-6.80102 2.093712,0 4.170861,0 6.588685,0 0,-2.41091 0,-4.47844 0,-7.10787 -1.901101,0 -4.103653,0 -6.470292,0 0,-2.60888 0,-4.67424 0,-7.15593 4.406639,0 8.674508,0 13.412644,0.032 0.470283,0.032 0.396858,-0.0369 0.393135,0.39775 -0.0037,4.7968 -0.0037,9.15892 -0.0037,13.63536 2.806289,0 4.940597,0 7.074905,0 0,0 -0.06994,-0.0701 -0.07238,0.35265 -0.0024,2.35321 -0.0024,4.28367 -0.0024,6.50743 -7.270203,0 -14.167725,0 -21.029404,0.0353 0.03584,0.0352 0.108871,0.10437 0.108871,0.10437 z"
   id="path121" />&#10;<path
   fill="#000000"
   opacity="1"
   stroke="none"
   d="m 55.564975,111.96704 c 0.448014,2.05057 0.426308,4.13358 0.437157,6.66195 -4.548103,0.44537 -9.128754,0.44537 -13.850311,0.44537 0,-2.55876 0,-4.61656 0,-7.07488 4.431366,0 8.687401,0 13.413154,-0.0324 z"
   id="path122" />&#10;<path
   fill="#000000"
   opacity="1"
   stroke="none"
   d="m 35.339054,154.04187 c -0.422829,-2.05084 -0.401039,-4.13438 -0.411919,-6.6627 2.05172,-0.41983 4.136108,-0.39488 6.666229,-0.33742 0.445732,0.0325 0.372696,-0.0366 0.369423,0.37351 -0.02499,2.4931 -0.04669,4.57609 -0.03327,6.62286 0.03513,-0.0362 0.104332,-0.10967 0.104332,-0.10967 -2.083389,0.0269 -4.166786,0.0538 -6.694793,0.11342 z"
   id="path123" />&#10;<path
   fill="#000000"
   opacity="1"
   stroke="none"
   d="m 35.002025,146.62033 c -2.050575,0.43256 -4.133667,0.41088 -6.662155,0.4217 -0.423717,-2.05057 -0.402039,-4.13366 -0.412891,-6.66214 2.091114,-0.44541 4.214763,-0.44541 7.04253,-0.44541 0,2.14795 0,4.18978 0.03252,6.68585 z"
   id="path124" />&#10;<path
   fill="#000000"
   opacity="1"
   stroke="none"
   d="m 97.927162,91.406375 c 2.04858,-0.45041 4.129618,-0.42878 6.626278,0.0145 0.41562,2.35695 0.41562,4.2922 0.41562,6.22941 2.59178,0 4.76939,0 6.67138,0 0,-2.43132 0,-4.50309 0,-6.57712 -2.4678,0 -4.6116,0 -6.7554,0 0,-2.15682 0,-4.31362 0,-6.76943 4.56902,0 8.9868,0 13.74396,0 0,6.52749 0,13.25709 0,20.547335 -4.25557,0 -8.78447,0 -13.47464,0 0,2.62691 0,4.69531 0,7.1378 2.25598,0 4.33198,0 6.60501,0 0,2.44188 0,4.51123 0,7.02052 -6.71631,0 -13.318528,0 -20.392828,0.0325 -0.47208,-2.11083 -0.47208,-4.25415 -0.47208,-6.74978 2.2126,0 4.28694,0 7.06515,0 0,-7.02463 0,-13.719165 -0.0325,-20.885745 z"
   id="path125" />&#10;<path
   fill="#000000"
   opacity="1"
   stroke="none"
   d="m 111.92709,63.392089 c 2.05054,-0.43602 4.1336,-0.41433 6.66205,-0.425171 0.44539,2.115987 0.44539,4.264487 0.44539,6.773577 2.10362,0 4.18239,0 6.59743,0 0,2.41868 0,4.49503 0,7.09688 -8.88565,0 -18.06316,0 -27.662428,0 0,4.76953 0,9.03357 0.0324,13.76744 -2.05057,0.44812 -4.13356,0.42641 -6.66193,0.43727 -0.42373,-6.69947 -0.4021,-13.43149 -0.41295,-20.63553 6.86493,-0.47202 13.762348,-0.47202 21.032538,-0.47202 0,-2.22378 0,-4.15425 -0.0325,-6.542446 z"
   id="path126" />&#10;<path
   fill="#000000"
   opacity="1"
   stroke="none"
   d="m 76.927062,98.389705 c 2.05056,-0.43364 4.13363,-0.41195 6.66208,-0.42279 0.44539,2.104515 0.44539,4.241565 0.44539,6.708015 -2.31315,0 -4.49413,0 -7.07496,0 0,-1.97017 0,-3.90004 -0.0325,-6.285225 z"
   id="path127" />&#10;<path
   fill="#000000"
   opacity="1"
   stroke="none"
   d="m 84.348762,98.041995 c -0.45424,-2.0911 -0.45424,-4.21471 -0.45424,-7.04248 2.14786,0 4.18966,0 6.68576,-0.0325 0.45429,2.0911 0.45429,4.21473 0.45429,7.04247 -2.14796,0 -4.18977,0 -6.68581,0.0325 z"
   id="path128" />&#10;<path
   fill="#000000"
   opacity="1"
   stroke="none"
   d="m 77.348762,77.041995 c -0.45425,-2.0911 -0.45425,-4.21472 -0.45425,-7.04248 2.14788,0 4.18967,0 6.68577,-0.0325 0.45429,2.0911 0.45429,4.21473 0.45429,7.04247 -2.14796,0 -4.18977,0 -6.68581,0.0325 z"
   id="path129" />&#10;<path
   fill="#000000"
   opacity="1"
   stroke="none"
   d="m 146.92709,84.402965 c 2.05057,-0.44693 4.13356,-0.42523 6.66195,-0.43608 0.44537,4.53713 0.44537,9.1068 0.44537,14.04251 -2.37154,0 -4.298,0 -6.68214,0.0326 -0.43601,-4.36841 -0.41437,-8.76939 -0.42518,-13.639 z"
   id="path130" />&#10;<path
   fill="#000000"
   opacity="1"
   stroke="none"
   d="m 91.001992,153.60596 c -2.05048,0.4435 -4.13338,0.4183 -6.62694,0.3947 -0.41066,0.002 -0.34064,0.074 -0.37308,-0.39571 -0.0324,-4.83188 -0.0324,-9.19409 -0.0324,-13.53048 2.79645,0 4.93078,0 7.02886,-0.035 -0.0362,-0.035 -0.10966,-0.10414 -0.10966,-0.10414 0.0269,4.40067 0.0539,8.80133 0.11325,13.67067 z"
   id="path131" />&#10;<path
   fill="#000000"
   opacity="1"
   stroke="none"
   d="m 119.34976,63.041961 c -0.43362,-2.050553 -0.41192,-4.133629 -0.42279,-6.662079 2.10451,-0.445389 4.24156,-0.445389 6.70801,-0.445389 0,2.313148 0,4.494133 0,7.074959 -1.97017,0 -3.90004,0 -6.28522,0.03251 z"
   id="path132" />&#10;<path
   fill="#000000"
   opacity="1"
   stroke="none"
   d="m 128.07257,91.006625 c 1.75615,-0.002 3.04703,-0.002 4.61426,-0.002 0,2.255 0,4.30822 0,6.68301 -1.89908,0 -3.9527,0 -7.17781,0 0.70715,-2.25105 1.40271,-4.46518 2.56355,-6.68115 z"
   id="path133" />&#10;<path
   fill="#000000"
   opacity="1"
   stroke="none"
   d="m 98.038272,133.06786 c 0,-2.14124 0,-4.28247 0,-6.74344 2.074918,0 4.145898,0 6.574248,0 0,1.9108 0,4.08937 0,6.67447 -1.93852,0 -3.87247,0 -6.226908,-3e-5 -0.42052,-3e-5 -0.34734,0.069 -0.34734,0.069 z"
   id="path134" />&#10;<path
   fill="#000000"
   opacity="1"
   stroke="none"
   d="m 97.930652,132.96216 c -0.0344,2.08919 -0.0344,4.21506 -0.0344,7.0374 -2.01103,0 -4.05441,0 -6.55263,-0.0321 -0.45484,-0.0321 -0.38142,0.037 -0.37771,-0.37337 0.0254,-2.49338 0.0471,-4.57642 0.0688,-6.65944 -1e-5,0 -0.0725,0.0702 -0.10921,0.10478 2.04911,0.013 4.13492,-0.009 6.66677,-9.3e-4 0.44601,0.0294 0.37283,-0.0396 0.33839,-0.0763 z"
   id="path135" />&#10;<path
   fill="#000000"
   opacity="1"
   stroke="none"
   d="m 209.56264,111.96711 c 0.45033,2.05052 0.42863,4.13349 0.4395,6.66186 -6.87297,0.44539 -13.77848,0.44539 -21.03723,0.44539 0,2.39746 0,4.46706 0,6.9351 -2.28743,0 -4.22344,0 -6.61493,0.0325 -0.45546,-2.11745 -0.45546,-4.26741 -0.45546,-6.7807 -2.10933,0 -4.18926,0 -6.60126,0 0,-2.41793 0,-4.48794 0,-6.94813 1.81725,0 3.88956,0 6.4496,0 0.13661,-2.542 0.25519,-4.74809 0.38275,-7.12155 2.3018,0 4.37131,0 6.80922,0 0,2.24759 0,4.32119 0,6.80794 6.95841,0 13.55708,0 20.62781,-0.0325 z"
   id="path136" />&#10;<path
   fill="#000000"
   opacity="1"
   stroke="none"
   d="m 160.96472,94.977445 c -0.13244,-2.56907 -0.2211,-4.33066 2.93833,-4.04636 3.5549,0.31988 7.16072,0.0736 10.8786,0.0736 0,2.48742 0,4.54133 0,6.99702 -4.0855,0 -8.00855,0.12143 -11.90994,-0.11473 -0.68229,-0.0413 -1.27355,-1.58612 -1.90699,-2.90953 z"
   id="path137" />&#10;<path
   fill="#000000"
   opacity="1"
   stroke="none"
   d="m 185.92722,91.004635 c 5.89903,0.25403 1.53871,4.43166 3.75543,6.64224 -2.92769,0 -5.09282,0 -7.77292,0 1.1906,-2.34129 -2.94075,-6.92353 4.01749,-6.64224 z"
   id="path138" />&#10;<path
   fill="#000000"
   opacity="1"
   stroke="none"
   d="m 203.00736,90.970185 c -2.10712,-0.0344 -4.25092,-0.0344 -6.71872,-0.0344 0,-2.07402 0,-4.1458 0,-6.57712 1.90355,0 4.08316,0 6.67138,0 0,1.93721 0,3.87246 -0.0291,6.26345 -0.0292,0.45572 0.0398,0.38251 0.0765,0.34809 z"
   id="path139" />&#10;<path
   fill="#000000"
   opacity="1"
   stroke="none"
   d="m 77.002062,174.62015 c -4.36838,0.43262 -8.76932,0.41098 -13.63893,0.42178 -0.468666,-2.09111 -0.468666,-4.21467 -0.468666,-7.03247 -2.007896,0 -4.049622,0 -6.545647,0.0325 -0.454284,-2.10178 -0.454284,-4.2361 -0.454284,-7.03251 -4.336342,0 -8.698525,0 -13.530419,0.0324 -0.444671,-2.05226 -0.419624,-4.13696 -0.362426,-6.66757 0.03216,-0.44591 -0.03705,-0.37245 0.399971,-0.36868 9.502059,-0.0232 18.5671,-0.0501 27.599971,0.37891 -0.0322,2.38684 -0.0322,4.31781 -0.0322,6.28942 2.57329,0 4.75339,0 6.92574,0 0,-2.46868 0,-4.60697 0.44513,-6.71011 2.52811,0.0603 4.61109,0.0855 6.69407,0.11073 0,0 -0.07,-0.0724 -0.10448,-0.1091 -0.01,4.36609 0.0149,8.76889 0.0721,13.64037 -2.09113,0.46866 -4.21471,0.46866 -7.03249,0.46866 0,2.00793 0,4.04965 0.0326,6.54559 z"
   id="path140" />&#10;<path
   fill="#000000"
   opacity="1"
   stroke="none"
   d="m 17.130916,35.002684 c -1.378197,-0.943351 -3.003235,-1.855918 -3.04422,-2.834816 -0.243461,-5.814876 -0.120247,-11.645099 -0.120247,-17.815704 6.82338,0 13.564999,0 20.653115,0 0,6.48341 0,13.224907 0,20.65065 -5.496582,0 -11.250084,0 -17.488648,-1.3e-4 z"
   id="path141" />&#10;<path
   fill="#000000"
   opacity="1"
   stroke="none"
   d="m 26.921016,196.00614 c 2.805352,0 5.120064,0 7.737679,0 0,6.91189 0,13.64987 0,20.69424 -6.610829,0 -13.348839,0 -20.391655,0 0,-6.61601 0,-13.3539 0,-20.69424 3.970207,0 8.066772,0 12.653976,0 z"
   id="path142" />&#10;<path
   fill="#000000"
   opacity="1"
   stroke="none"
   d="M 196.36029,34.599845 C 196.0226,27.63531 196.0226,21.015891 196.0226,14.207442 c 7.07649,0 13.81294,0 20.73585,0 0,6.938095 0,13.674542 0,20.737518 -6.81881,0 -13.43965,0 -20.39816,-0.345115 z"
   id="path143" />&#10;<path
   fill="#000000"
   opacity="1"
   stroke="none"
   d="m 111.57932,55.967009 c 0.43362,2.050553 0.41192,4.133629 0.42279,6.662079 -2.10451,0.445389 -4.24157,0.445389 -6.70801,0.445389 0,-2.313148 0,-4.494133 0,-7.074959 1.97017,0 3.90004,0 6.28522,-0.03251 z"
   id="path144" />&#10;<path
   fill="#000000"
   opacity="1"
   stroke="none"
   d="m 27.927158,154.37892 c 2.050842,-0.42276 4.134392,-0.40097 6.662712,-0.41185 0.422981,2.05089 0.401192,4.13443 0.412071,6.66276 -2.050873,0.42297 -4.134422,0.40118 -6.662739,0.41206 -0.422958,-2.05103 -0.401145,-4.13474 -0.412044,-6.66297 z"
   id="path145" />&#10;<path
   fill="#ffffff"
   opacity="1"
   stroke="none"
   d="m 84.001972,153.60495 c -2.05054,0.44449 -4.13352,0.4193 -6.62708,0.39566 -0.41056,0.002 -0.34048,0.074 -0.37292,-0.39566 -0.0324,-4.83184 -0.0324,-9.19403 -0.0324,-13.67051 -2.80627,0 -4.94059,0 -7.03868,0.0351 0.0363,0.0351 0.10969,0.10429 0.10969,0.10429 0,-4.58763 0,-9.17526 0,-13.9106 2.31017,0 4.25676,0 6.74264,0 0,2.06536 0,4.25333 0,6.83624 4.78773,0 9.04984,0 13.78173,-0.0324 0.44807,2.0506 0.42637,4.13364 0.4372,6.66205 -2.1018,0.44538 -4.23613,0.44538 -7.03258,0.44538 0,4.33639 0,8.6986 0.0324,13.53048 z"
   id="path146" />&#10;<path
   fill="#ffffff"
   opacity="1"
   stroke="none"
   d="m 70.033812,153.9287 c -9.065051,0.0269 -18.130092,0.0538 -27.667277,0.11319 -0.45044,-2.05054 -0.428734,-4.13353 -0.439591,-6.6619 6.86496,-0.44537 13.762482,-0.44537 21.032685,-0.44537 0,-2.22376 0,-4.15422 -0.03253,-6.54247 2.052185,-0.43272 4.136895,-0.4077 6.667535,-0.35049 0.44592,0.0322 0.37248,-0.037 0.36869,0.39655 -0.0254,4.83453 -0.047,9.23547 -0.0336,13.60017 0.035,-0.0363 0.10412,-0.10968 0.10412,-0.10968 z"
   id="path147" />&#10;<path
   fill="#ffffff"
   opacity="1"
   stroke="none"
   d="m 63.001995,139.60488 c -2.101853,0.46966 -4.236161,0.46966 -7.04245,0.46966 0,-4.47644 0,-8.83856 -0.03246,-13.67039 2.10186,-0.46971 4.236176,-0.46971 7.04245,-0.46971 0,4.47647 0,8.83862 0.03246,13.67044 z"
   id="path148" />&#10;<path
   fill="#ffffff"
   opacity="1"
   stroke="none"
   d="m 104.92172,91.038785 c 2.10712,0.0344 4.25092,0.0344 6.71872,0.0344 0,2.07403 0,4.1458 0,6.57712 -1.90199,0 -4.0796,0 -6.67138,0 0,-1.93721 0,-3.87246 0.0291,-6.26345 0.0292,-0.45572 -0.0398,-0.38251 -0.0765,-0.34809 z"
   id="path149" />&#10;<path
   fill="#ffffff"
   opacity="1"
   stroke="none"
   d="m 76.929772,153.96546 c -0.0346,2.10158 -0.0346,4.23987 -0.0346,6.70855 -2.17235,0 -4.35245,0 -6.92574,0 0,-1.97161 0,-3.90258 0.0322,-6.28942 0.0322,-0.45589 -0.0369,-0.38247 0.37342,-0.37876 2.49335,0.0254 4.57635,0.0471 6.65936,0.0688 0,0 -0.0701,-0.0725 -0.10464,-0.10917 z"
   id="path150" />&#10;<path
   fill="#000000"
   opacity="1"
   stroke="none"
   d="m 77.001972,153.60495 c -2.05057,0.44799 -4.13357,0.42629 -6.66194,0.43714 -0.42375,-4.36841 -0.40212,-8.76935 -0.41295,-13.63898 2.10187,-0.46867 4.23619,-0.46867 7.04246,-0.46867 0,4.47648 0,8.83867 0.0324,13.67051 z"
   id="path151" />&#10;</svg>
