<?xml version="1.0" encoding="UTF-8" standalone="no"?>
<svg
   version="1.0"
   width="232pt"
   height="232pt"
   viewBox="0 0 232 232"
   preserveAspectRatio="xMidYMid meet"
   id="svg50"
   xmlns="http://www.w3.org/2000/svg"
   xmlns:svg="http://www.w3.org/2000/svg">
  <defs
     id="defs54" />
  <g
     transform="matrix(0.1,0,0,-0.1,-34,266)"
     fill="#000000"
     stroke="none"
     id="g48">
    <path
       d="m 340,2380 v -280 h 280 280 v 280 280 H 620 340 Z m 480,0 V 2180 H 620 420 v 200 200 h 200 200 z"
       id="path2" />
    <path
       d="m 500,2380 v -120 h 120 120 v 120 120 H 620 500 Z"
       id="path4" />
    <path
       d="m 1060,2620 v -40 h -40 -40 v -40 -40 h 40 40 v -40 -40 h -40 -40 v -40 -40 h 80 80 v -120 -120 h 40 40 v 120 120 h 40 40 v -40 -40 h 40 40 v -40 -40 h -40 -40 v -120 -120 h 80 80 v 40 40 h 40 40 v -120 -120 h 80 80 v -80 -80 h -40 -40 v 40 40 h -40 -40 v -80 -80 h -40 -40 v 40 40 h -80 -80 v 80 80 h 40 40 v 40 40 h -80 -80 v -40 -40 h -40 -40 v 80 80 h 40 40 v 40 40 H 1020 820 v -40 -40 h -40 -40 v 40 40 H 540 340 v -40 -40 h 40 40 v -40 -40 h -40 -40 v -80 -80 h 80 80 v -40 -40 h 40 40 v -120 -120 h 40 40 v -40 -40 h 40 40 v -80 -80 h -40 -40 v -80 -80 h 160 160 v -80 -80 h 40 40 v -40 -40 h -40 -40 V 540 340 h 80 80 v 40 40 h 40 40 v -40 -40 h 40 40 v 80 80 h 40 40 v 40 40 h -160 -160 v 80 80 h 40 40 v 40 40 h -40 -40 v 40 40 h 80 80 v 40 40 h 40 40 v -40 -40 h 40 40 v -40 -40 h -40 -40 v -80 -80 h 40 40 v 40 40 h 40 40 v -40 -40 h 40 40 v -40 -40 h 40 40 v -40 -40 h 120 120 v 80 80 h 40 40 v -40 -40 h 40 40 v 40 40 h 80 80 v -80 -80 h 40 40 v 80 80 h 40 40 v 80 80 h 40 40 v -80 -80 h 120 120 v 80 80 h -80 -80 v 40 40 h 40 40 v 80 80 h 40 40 v 40 40 h -80 -80 v 40 40 h -40 -40 v 40 40 h -40 -40 v 80 80 h 80 80 v -40 -40 h 80 80 v 80 80 h -40 -40 v 40 40 h -40 -40 v -40 -40 h -40 -40 v 40 40 h -80 -80 v 40 40 h 80 80 v 40 40 h 40 40 v 40 40 h 40 40 v 80 80 h -40 -40 v -80 -80 h -40 -40 v 80 80 h -40 -40 v -40 -40 h -40 -40 v 40 40 h -40 -40 v -40 -40 h 40 40 v -40 -40 h -40 -40 v -40 -40 h -40 -40 v 120 120 h -40 -40 v 80 80 h -40 -40 v 40 40 h 40 40 v 80 80 h -40 -40 v 80 80 h 40 40 v 40 40 h -120 -120 v -40 -40 h -80 -80 v 40 40 h -80 -80 v -40 -40 h -120 -120 v -40 -40 h -40 -40 v 80 80 h -40 -40 z m 480,-80 v -40 h 120 120 v 40 40 h 40 40 v -80 -80 h 40 40 v -80 -80 h -40 -40 v -40 -40 h 40 40 v -40 -40 h -40 -40 v -40 -40 h 40 40 v -40 -40 h -40 -40 v -40 -40 h -80 -80 v 40 40 h -40 -40 v 40 40 h -40 -40 v 80 80 h -40 -40 v -80 -80 h -40 -40 v 80 80 h 40 40 v 40 40 h -40 -40 v 40 40 h -40 -40 v 80 80 h 80 80 v 40 40 h 40 40 z m -320,-160 v -40 h -40 -40 v 40 40 h 40 40 z M 740,1900 v -40 h 40 40 v 40 40 h 80 80 v -40 -40 h -80 -80 v -40 -40 h 40 40 v -40 -40 h 40 40 v 40 40 h 40 40 v -40 -40 h -40 -40 v -40 -40 h -40 -40 v -40 -40 h 80 80 v -40 -40 h 40 40 v 40 40 h 40 40 v 40 40 h -40 -40 v 40 40 h 40 40 v -40 -40 h 40 40 v -40 -40 h 40 40 v -40 -40 h -40 -40 v -80 -80 h 40 40 v 40 40 h 40 40 v 40 40 h 120 120 v -40 -40 h -120 -120 v -40 -40 h 160 160 v -40 -40 h -120 -120 v -40 -40 h 80 80 v -80 -80 h 40 40 v 40 40 h 80 80 v -80 -80 h -160 -160 v 80 80 h -40 -40 v -40 -40 h -120 -120 v 80 80 h 40 40 v 40 40 h -120 -120 v 40 40 h -40 -40 v -120 -120 h 40 40 v -40 -40 h -80 -80 v 40 40 h -80 -80 v 40 40 h 40 40 v 40 40 h -40 -40 v 40 40 h -40 -40 v 160 160 h -40 -40 v 40 40 h -80 -80 v 40 40 h -40 -40 v 40 40 h 120 120 v 40 40 h 40 40 z m 1280,-80 v -40 h 40 40 v -40 -40 h 40 40 v 40 40 h 40 40 v 40 40 h 40 40 v -40 -40 h -40 -40 v -40 -40 h -40 -40 v -40 -40 h 40 40 v -40 -40 h 40 40 v -40 -40 h -40 -40 v 40 40 h -40 -40 v -40 -40 h -40 -40 v -40 -40 h 40 40 v -40 -40 h -40 -40 v -40 -40 h 40 40 v -40 -40 h -80 -80 v 40 40 h -40 -40 v 40 40 h -40 -40 v 40 40 h 80 80 v 40 40 h -40 -40 v 40 40 h 120 120 v 40 40 h -80 -80 v 80 80 h -40 -40 v 40 40 h 40 40 z m -80,-160 v -40 h -40 -40 v -80 -80 h -40 -40 v 40 40 h -40 -40 v 40 40 h 40 40 v 40 40 h 80 80 z m 400,-480 v -40 h 80 80 v -40 -40 h -80 -80 v 40 40 h -40 -40 v 40 40 h 40 40 z M 2260,860 V 740 h -120 -120 v 120 120 h 120 120 z m 240,80 v -40 h -80 -80 v 40 40 h 80 80 z M 1700,780 v -40 h 40 40 v 40 40 h 40 40 v -40 -40 h -40 -40 v -80 -80 h -80 -80 v 80 80 h -80 -80 v 40 40 h 120 120 z M 1140,460 v -40 h -40 -40 v 40 40 h 40 40 z"
       id="path6" />
    <path
       d="m 1460,2420 v -80 h 40 40 v -40 -40 h 40 40 v -80 -80 h 40 40 v 40 40 h 40 40 v -40 -40 h 40 40 v 40 40 h -40 -40 v 40 40 h -80 -80 v 40 40 h 40 40 v 40 40 h -80 -80 v 40 40 h -40 -40 z"
       id="path8" />
    <path
       d="m 1700,1980 v -40 h 80 80 v 40 40 h -80 -80 z"
       id="path10" />
    <path
       d="m 660,1780 v -80 h 80 80 v -40 -40 h 40 40 v 40 40 h -40 -40 v 40 40 h -40 -40 v 40 40 h -40 -40 z"
       id="path12" />
    <path
       d="m 820,1500 v -40 h 40 40 v 40 40 h -40 -40 z"
       id="path14" />
    <path
       d="m 980,1420 v -40 h -80 -80 v -40 -40 h 120 120 v 80 80 h -40 -40 z"
       id="path16" />
    <path
       d="m 1460,1100 v -40 h 40 40 v 40 40 h -40 -40 z"
       id="path18" />
    <path
       d="m 2100,860 v -40 h 40 40 v 40 40 h -40 -40 z"
       id="path20" />
    <path
       d="m 2100,2380 v -280 h 280 280 v 280 280 h -280 -280 z m 480,0 v -200 h -200 -200 v 200 200 h 200 200 z"
       id="path22" />
    <path
       d="m 2260,2380 v -120 h 120 120 v 120 120 h -120 -120 z"
       id="path24" />
    <path
       d="m 980,2180 v -80 h 40 40 v 80 80 h -40 -40 z"
       id="path26" />
    <path
       d="m 2580,1740 v -40 h 40 40 v 40 40 h -40 -40 z"
       id="path28" />
    <path
       d="m 340,1540 v -80 h 80 80 v 40 40 h -40 -40 v 40 40 h -40 -40 z"
       id="path30" />
    <path
       d="M 340,1180 V 980 h 40 40 v 200 200 h -40 -40 z"
       id="path32" />
    <path
       d="m 500,1100 v -40 h 40 40 v 40 40 h -40 -40 z"
       id="path34" />
    <path
       d="M 340,620 V 340 H 620 900 V 620 900 H 620 340 Z m 480,0 V 420 H 620 420 v 200 200 h 200 200 z"
       id="path36" />
    <path
       d="M 500,620 V 500 H 620 740 V 620 740 H 620 500 Z"
       id="path38" />
    <path
       d="m 2420,540 v -40 h -40 -40 v -40 -40 h -40 -40 v -40 -40 h 120 120 v 80 80 h 40 40 v -40 -40 h 40 40 v 40 40 h -40 -40 v 40 40 h -80 -80 z"
       id="path40" />
    <path
       d="m 1460,460 v -40 h 40 40 v -40 -40 h 40 40 v 40 40 h -40 -40 v 40 40 h -40 -40 z"
       id="path42" />
    <path
       d="m 1940,460 v -40 h 40 40 v -40 -40 h 80 80 v 40 40 h -80 -80 v 40 40 h -40 -40 z"
       id="path44" />
    <path
       d="m 1700,380 v -40 h 40 40 v 40 40 h -40 -40 z"
       id="path46" />
  </g>
</svg>
